# 3ds Max Wavefront OBJ Exporter v0.99 - (c)2007 guruware
# 创建的文件:30.06.2021 14:19:18

mtllib 12.mtl

#
# object 对象012
#

v  105.3981 17.2482 30.7591
v  104.1112 16.8225 21.0397
v  114.0396 17.3317 29.5315
v  112.7526 16.9061 19.8120
v  113.0489 17.1909 19.7746
v  114.3362 17.6291 29.4982
v  113.7251 18.2233 29.6113
v  112.4349 23.6172 20.1837
v  112.4136 17.7500 19.7030
v  113.7080 24.9507 29.8694
v  112.4265 24.8416 20.2151
v  113.6998 26.5567 29.9312
v  112.4214 25.5902 20.2344
v  114.3103 24.9552 29.7796
v  113.0131 23.6026 19.9115
v  104.0817 17.6772 20.8842
v  105.3933 18.1504 30.7925
v  113.0288 24.8461 20.1254
v  114.3021 26.5612 29.8415
v  113.0237 25.5948 20.1447
v  105.6246 17.3276 32.4700
v  114.2615 17.4079 31.2375
v  114.2110 17.5471 31.3871
v  105.6413 17.4666 32.6067
v  114.5525 17.7018 31.2012
v  114.4341 17.7969 31.3621
v  114.3916 25.6390 31.6660
v  114.5120 26.5453 31.5430
v  114.3918 26.6032 31.7024
v  114.5176 25.5911 31.5115
v  113.9416 26.5410 31.6279
v  114.1076 25.6369 31.7083
v  114.0975 26.6010 31.7462
v  113.9473 25.5868 31.5965
v  113.9636 18.2828 31.3127
v  114.1261 18.1453 31.4253
v  105.6382 18.0712 32.6298
v  105.6186 18.2098 32.4930
v  113.8428 28.2690 29.9599
v  113.7000 28.1210 29.9365
v  114.2718 28.1253 29.8514
v  114.1377 28.2712 29.9159
v  112.1698 23.7792 18.0764
v  112.2815 22.9676 17.7963
v  112.1617 22.9538 17.9530
v  112.2897 23.8152 17.9230
v  112.1686 17.6308 17.7444
v  112.2835 17.4915 17.5862
v  103.8060 17.4177 18.7889
v  103.8226 17.5577 18.9245
v  112.7398 23.7835 17.9915
v  112.7318 22.9580 17.8682
v  112.5756 22.9698 17.7526
v  112.5838 23.8174 17.8792
v  112.6025 17.1682 17.5312
v  112.7575 17.0817 17.6485
v  112.4661 16.8093 17.6828
v  112.3790 16.9418 17.5551
v  103.8287 16.7288 18.9062
v  103.8090 16.8666 18.7687
v  112.6417 26.6606 20.7970
v  112.5087 26.5261 20.8501
v  112.4112 26.2832 20.1002
v  112.5412 26.4095 20.0225
v  112.3249 25.8584 19.4161
v  112.4513 25.9680 19.3113
v  112.9371 26.6628 20.7530
v  113.0814 26.5304 20.7648
v  112.9846 26.2876 20.0148
v  112.8369 26.4117 19.9785
v  112.7469 25.9702 19.2673
v  112.8979 25.8627 19.3307
v  112.3222 24.6344 18.2310
v  112.2012 24.5707 18.3740
v  112.7713 24.5750 18.2891
v  112.6163 24.6366 18.1872
v  112.2540 25.2762 18.8293
v  112.3772 25.3647 18.7026
v  112.6717 25.3669 18.6587
v  112.8249 25.2804 18.7443
v  96.7853 17.1449 31.7641
v  95.4984 16.7192 22.0446
v  95.1995 16.9979 22.0863
v  96.4868 17.4362 31.8099
v  97.0891 18.0428 31.7618
v  95.7645 23.4363 22.3388
v  97.0376 24.7698 32.0244
v  95.7776 17.5695 21.8535
v  95.7561 24.6607 22.3702
v  97.0294 26.3758 32.0863
v  95.7510 25.4094 22.3895
v  96.4379 24.7621 32.0944
v  95.1407 23.4094 22.2262
v  95.1564 24.6529 22.4402
v  96.4296 26.3680 32.1563
v  95.1513 25.4016 22.4595
v  97.0149 17.2211 33.4690
v  97.0993 17.3617 33.6008
v  96.7211 17.5090 33.5104
v  96.8744 17.6069 33.6353
v  96.6714 26.3524 33.8534
v  96.8368 25.4491 33.9385
v  96.8268 26.4132 33.9763
v  96.6771 25.3982 33.8220
v  97.2449 25.4056 33.7557
v  97.2394 26.3598 33.7872
v  97.1196 25.4527 33.9055
v  97.1197 26.4170 33.9421
v  97.3020 18.1020 33.4665
v  97.1785 17.9615 33.6172
v  96.8657 28.0850 32.1556
v  96.9992 27.9397 32.0956
v  96.4298 27.9324 32.1621
v  96.5720 28.0812 32.1899
v  95.3036 22.7836 19.9922
v  95.4671 23.5980 20.2358
v  95.4592 22.7725 20.1123
v  95.3117 23.6312 20.1189
v  95.3569 17.3080 19.7753
v  95.5051 17.4500 19.8985
v  94.8995 23.5906 20.3020
v  95.0108 22.7798 20.0264
v  94.8916 22.7652 20.1786
v  95.0189 23.6274 20.1531
v  95.0439 16.9783 19.8042
v  94.9278 16.8889 19.9575
v  95.2685 16.7564 19.7686
v  95.2209 16.6225 19.9141
v  95.6650 26.4766 22.9927
v  95.8088 26.3449 23.0090
v  95.7120 26.1021 22.2591
v  95.5649 26.2255 22.2182
v  95.4748 25.7840 21.5070
v  95.6253 25.6772 21.5750
v  95.2385 26.3376 23.0756
v  95.3709 26.4728 23.0270
v  95.1410 26.0947 22.3257
v  95.2704 26.2217 22.2525
v  95.0547 25.6699 21.6416
v  95.1805 25.7802 21.5413
v  95.4985 24.3895 20.5333
v  95.3442 24.4504 20.4269
v  95.0514 24.4466 20.4611
v  94.9309 24.3822 20.5996
v  95.3996 25.1807 20.8984
v  95.5522 25.0949 20.9885
v  94.9838 25.0875 21.0548
v  95.1064 25.1769 20.9326
# 148 vertices

vn 0.0161 -0.9990 0.0419
vn 0.0161 -0.9990 0.0416
vn 0.0483 -0.9981 0.0375
vn 0.0461 -0.9982 0.0379
vn 0.9907 -0.0389 -0.1303
vn 0.9912 -0.0301 -0.1290
vn 0.9907 -0.0388 -0.1303
vn 0.0483 -0.9981 0.0374
vn 0.0461 -0.9982 0.0378
vn -0.6215 0.7820 0.0470
vn -0.9914 -0.0076 0.1304
vn -0.5546 0.8315 0.0311
vn -0.9914 -0.0076 0.1305
vn -0.9911 -0.0081 0.1331
vn -0.9911 -0.0082 0.1330
vn -0.9914 -0.0101 0.1305
vn -0.9912 -0.0050 0.1324
vn -0.9915 -0.0034 0.1298
vn -0.9914 -0.0101 0.1304
vn 0.9915 0.0090 -0.1298
vn 0.9911 0.0087 -0.1327
vn 0.9912 -0.0302 -0.1290
vn 0.9907 -0.0389 -0.1304
vn 0.9911 0.0087 -0.1326
vn -0.0170 0.9987 -0.0476
vn -0.0165 0.9989 -0.0436
vn -0.5536 0.8319 0.0384
vn 0.9915 0.0089 -0.1298
vn 0.9911 0.0103 -0.1329
vn 0.9913 0.0153 -0.1310
vn 0.9911 0.0103 -0.1328
vn 0.9915 0.0090 -0.1299
vn 0.9913 0.0154 -0.1310
vn 0.9909 0.0169 -0.1335
vn 0.0216 -0.9965 0.0809
vn 0.0561 -0.9939 0.0954
vn 0.1454 -0.2648 0.9533
vn 0.1297 -0.1352 0.9823
vn 0.9971 -0.0296 -0.0698
vn 0.0560 -0.9939 0.0954
vn 0.5923 -0.0393 0.8048
vn 0.4117 -0.0326 0.9107
vn 0.9952 0.0978 0.0031
vn 0.3886 0.5366 0.7490
vn 0.9997 0.0056 -0.0223
vn 0.9997 0.0057 -0.0224
vn 0.4117 -0.0325 0.9107
vn 0.9997 0.0056 -0.0224
vn 0.9971 -0.0297 -0.0698
vn -0.9627 0.0739 0.2604
vn -0.1205 -0.0380 0.9920
vn -0.1600 0.5337 0.8304
vn -0.9627 0.0739 0.2603
vn -0.9710 -0.0120 0.2386
vn -0.1204 -0.0380 0.9920
vn -0.6263 0.7495 0.2143
vn 0.0872 0.0248 0.9959
vn -0.6263 0.7495 0.2144
vn 0.1252 0.1507 0.9806
vn -0.0050 0.9990 0.0446
vn -0.2791 0.9593 0.0437
vn -0.9848 0.1137 0.1310
vn -0.1601 0.5337 0.8304
vn -0.9848 0.1136 0.1311
vn -0.9627 0.0740 0.2603
vn 0.9823 0.1337 -0.1315
vn 0.2592 0.9653 -0.0321
vn 0.3886 0.5366 0.7491
vn -0.9984 0.0097 0.0563
vn -0.4276 0.0484 -0.9027
vn -0.9973 -0.0039 0.0732
vn -0.4275 0.0485 -0.9027
vn -0.9984 0.0096 0.0563
vn -0.4267 0.2382 -0.8725
vn -0.5318 0.8403 -0.1056
vn -0.1840 0.1103 -0.9767
vn -0.1275 0.2195 -0.9672
vn -0.1839 0.1103 -0.9767
vn -0.0261 0.9926 -0.1188
vn 0.9769 0.0310 -0.2116
vn 0.9817 0.0116 -0.1903
vn 0.1617 0.0528 -0.9854
vn 0.1507 0.2454 -0.9576
vn 0.3244 0.0184 -0.9458
vn 0.9816 0.0115 -0.1904
vn 0.9823 -0.0415 -0.1828
vn 0.9816 0.0116 -0.1903
vn 0.3244 0.0184 -0.9457
vn 0.0375 -0.9993 -0.0096
vn -0.1283 -0.2290 -0.9649
vn 0.0376 -0.9992 -0.0095
vn 0.9823 -0.0414 -0.1828
vn -0.1283 -0.2291 -0.9649
vn 0.0084 -0.9998 -0.0191
vn -0.1245 -0.1728 -0.9770
vn 0.0375 -0.9993 -0.0095
vn -0.3183 0.9385 -0.1337
vn -0.9848 0.1137 0.1311
vn -0.3183 0.9385 -0.1338
vn -0.9886 0.1003 0.1119
vn -0.9834 0.1759 0.0451
vn -0.3489 0.8661 -0.3579
vn -0.9902 0.1390 0.0118
vn -0.3766 0.7490 -0.5451
vn -0.9834 0.1759 0.0450
vn 0.2584 0.9429 -0.2103
vn 0.9815 0.1195 -0.1497
vn 0.2585 0.9429 -0.2103
vn 0.2592 0.9653 -0.0320
vn 0.9565 0.1980 -0.2144
vn 0.2213 0.8725 -0.4356
vn 0.9815 0.1194 -0.1496
vn 0.1924 0.7569 -0.6246
vn 0.9558 0.1587 -0.2476
vn -0.5402 0.3567 -0.7622
vn -0.4268 0.2381 -0.8725
vn -0.9979 0.0254 0.0590
vn 0.9774 0.0470 -0.2063
vn 0.1507 0.2453 -0.9576
vn 0.2921 0.3682 -0.8827
vn 0.9774 0.0471 -0.2063
vn -0.9972 0.0649 0.0367
vn -0.5168 0.6073 -0.6034
vn 0.3169 0.6184 -0.7191
vn 0.9558 0.1588 -0.2476
vn 0.9706 0.0849 -0.2252
vn -0.9979 0.0255 0.0590
vn -0.9972 0.0648 0.0366
vn 0.2920 0.3682 -0.8827
vn 0.9706 0.0848 -0.2252
vn 0.0873 0.0248 0.9959
vn 0.1454 -0.2647 0.9533
vn 0.5923 -0.0394 0.8048
vn -0.9911 -0.0081 0.1330
vn 0.3886 0.5365 0.7491
vn -0.2792 0.9592 0.0437
vn -0.5546 0.8316 0.0311
vn -0.9973 -0.0039 0.0731
vn -0.5318 0.8402 -0.1056
vn -0.1840 0.1104 -0.9767
vn -0.1839 0.1104 -0.9767
vn -0.1245 -0.1728 -0.9771
vn -0.4275 0.0484 -0.9027
vn -0.4268 0.2381 -0.8724
vn 0.2213 0.8725 -0.4357
vn -0.3766 0.7490 -0.5450
vn -0.3767 0.7490 -0.5451
vn 0.2214 0.8725 -0.4356
vn -0.9915 -0.0034 0.1299
vn -0.5167 0.6073 -0.6035
vn -0.1276 0.5448 -0.8288
vn -0.1277 0.5447 -0.8288
vn -0.4268 0.2382 -0.8724
vn 0.9909 0.0170 -0.1335
vn 0.9909 0.0169 -0.1336
vn 0.9706 0.0849 -0.2253
vn 0.9816 0.0116 -0.1904
vn 0.9907 -0.0388 -0.1304
vn -0.9914 -0.0100 0.1304
vn 0.0217 -0.9965 0.0809
vn 0.0162 -0.9990 0.0420
vn 0.0162 -0.9990 0.0416
vn -0.6263 0.7496 0.2143
vn -0.6215 0.7820 0.0469
vn -0.9887 0.1002 0.1119
vn 0.9952 0.0979 0.0031
vn -0.6263 0.7496 0.2144
vn -0.0051 0.9990 0.0446
vn 0.9815 0.1194 -0.1497
vn 0.0163 -0.9990 0.0419
vn -0.0160 -0.9988 0.0460
vn 0.0163 -0.9990 0.0416
vn -0.0140 -0.9989 0.0459
vn -0.9894 -0.0587 0.1327
vn -0.0140 -0.9988 0.0459
vn -0.0160 -0.9988 0.0461
vn -0.9897 -0.0501 0.1341
vn 0.5379 0.8359 -0.1097
vn 0.9911 0.0127 -0.1328
vn 0.9912 0.0121 -0.1317
vn 0.9910 0.0127 -0.1329
vn 0.5379 0.8358 -0.1096
vn 0.5298 0.8406 -0.1129
vn 0.9912 0.0120 -0.1317
vn 0.9910 0.0126 -0.1329
vn 0.9911 0.0103 -0.1330
vn -0.9910 -0.0114 0.1335
vn -0.9914 -0.0116 0.1307
vn -0.9913 -0.0117 0.1309
vn 0.5379 0.8359 -0.1096
vn 0.5388 0.8362 -0.1022
vn -0.9914 -0.0099 0.1306
vn -0.9913 -0.0116 0.1307
vn -0.9910 -0.0113 0.1335
vn 0.0899 -0.7095 0.6990
vn 0.0906 -0.7039 0.7045
vn 0.1066 -0.0513 0.9930
vn -0.9801 -0.0495 0.1923
vn -0.0171 -0.9986 0.0504
vn -0.9801 -0.0496 0.1923
vn 0.1067 -0.0514 0.9930
vn -0.3649 -0.0490 0.9297
vn -0.9631 0.0733 0.2591
vn -0.1612 -0.0384 0.9862
vn -0.4262 0.2440 0.8711
vn -0.9631 0.0733 0.2590
vn -0.9710 -0.0146 0.2386
vn 0.9787 -0.0022 0.2054
vn 0.9953 0.0972 0.0024
vn 0.3777 -0.0328 0.9253
vn 0.6217 0.2673 0.7363
vn 0.3777 -0.0329 0.9253
vn 0.0943 0.9840 0.1511
vn 0.0930 0.9839 0.1527
vn 0.3777 -0.0329 0.9254
vn 0.1714 0.0271 0.9848
vn 0.1713 0.0271 0.9848
vn 0.2795 0.9479 -0.1530
vn 0.9825 0.1320 -0.1312
vn -0.9849 0.1134 0.1307
vn -0.9849 0.1134 0.1308
vn -0.4262 0.2441 0.8711
vn -0.3263 0.9427 -0.0700
vn 0.1784 0.0546 -0.9824
vn 0.9784 0.0293 -0.2048
vn 0.9818 0.0163 -0.1893
vn 0.9784 0.0294 -0.2048
vn 0.1789 0.2440 -0.9531
vn -0.0751 0.1102 -0.9911
vn 0.1785 0.0546 -0.9824
vn 0.4728 0.8481 -0.2391
vn 0.4729 0.8481 -0.2391
vn -0.1274 0.2195 -0.9672
vn 0.4729 0.8481 -0.2390
vn -0.9987 0.0110 0.0505
vn -0.4166 0.0469 -0.9079
vn -0.9973 -0.0087 0.0731
vn -0.4166 0.0468 -0.9079
vn -0.9987 0.0110 0.0506
vn -0.4051 0.2397 -0.8823
vn -0.5636 0.0127 -0.8260
vn -0.9949 -0.0609 0.0810
vn -0.1175 -0.2306 -0.9659
vn -0.9948 -0.0609 0.0810
vn -0.0179 -0.9998 -0.0029
vn -0.1175 -0.2307 -0.9659
vn -0.0180 -0.9998 -0.0028
vn 0.2556 0.9437 -0.2099
vn 0.9825 0.1321 -0.1312
vn 0.9815 0.1195 -0.1496
vn 0.9570 0.1963 -0.2134
vn 0.2556 0.9437 -0.2098
vn 0.2311 0.8704 -0.4348
vn 0.9571 0.1963 -0.2133
vn 0.2082 0.7539 -0.6231
vn 0.2311 0.8704 -0.4347
vn 0.2081 0.7539 -0.6231
vn 0.9564 0.1573 -0.2462
vn -0.9888 0.0983 0.1123
vn -0.3254 0.9362 -0.1326
vn -0.3263 0.9427 -0.0701
vn -0.9836 0.1745 0.0454
vn -0.9836 0.1746 0.0454
vn -0.3442 0.8671 -0.3601
vn -0.9903 0.1381 0.0123
vn -0.3663 0.7511 -0.5492
vn 0.9781 0.0452 -0.2030
vn 0.1789 0.2439 -0.9531
vn 0.1847 0.4331 -0.8822
vn -0.3961 0.4306 -0.8110
vn -0.3961 0.4305 -0.8110
vn -0.9980 0.0268 0.0569
vn 0.1945 0.6056 -0.7716
vn 0.2082 0.7540 -0.6231
vn 0.1946 0.6056 -0.7716
vn 0.9709 0.0841 -0.2242
vn -0.9972 0.0644 0.0372
vn -0.3663 0.7512 -0.5492
vn -0.3843 0.6033 -0.6988
vn -0.9903 0.1381 0.0122
vn 0.1848 0.4331 -0.8822
vn -0.3843 0.6034 -0.6988
vn -0.9972 0.0645 0.0372
vn -0.9897 -0.0501 0.1342
vn -0.0172 -0.9986 0.0504
vn 0.0694 0.7341 0.6755
vn 0.0693 0.7340 0.6756
vn 0.9910 0.0127 -0.1330
vn 0.5298 0.8406 -0.1128
vn 0.5298 0.8406 -0.1124
vn -0.9949 -0.0609 0.0809
vn -0.0139 -0.9988 0.0459
vn -0.0179 -0.9998 -0.0028
vn -0.4051 0.2398 -0.8823
vn -0.9710 -0.0145 0.2386
vn 0.6217 0.2673 0.7362
vn -0.9888 0.0983 0.1122
vn -0.9914 -0.0099 0.1305
vn -0.9913 -0.0116 0.1308
vn -0.9894 -0.0588 0.1327
vn -0.9973 -0.0087 0.0730
vn 0.0163 -0.9990 0.0420
vn 0.0164 -0.9990 0.0416
vn 0.9923 0.0126 -0.1235
vn 0.9922 0.0124 -0.1244
vn -0.9915 -0.0035 0.1298
# 306 vertex normals

vt 0.5175 0.3300 0.0000
vt 0.4906 0.3308 0.0000
vt 0.5175 0.3534 0.0000
vt 0.4916 0.3540 0.0000
vt 0.4916 0.3551 0.0000
vt 0.5176 0.3546 0.0000
vt 0.4452 0.2963 0.0000
vt 0.4344 0.3143 0.0000
vt 0.4455 0.3155 0.0000
vt 0.4323 0.2955 0.0000
vt 0.4320 0.3142 0.0000
vt 0.4292 0.2953 0.0000
vt 0.4306 0.3141 0.0000
vt 0.5201 0.3738 0.0000
vt 0.4928 0.3722 0.0000
vt 0.4616 0.3152 0.0000
vt 0.4612 0.2960 0.0000
vt 0.4936 0.3755 0.0000
vt 0.5206 0.3780 0.0000
vt 0.4938 0.3775 0.0000
vt 0.5223 0.3302 0.0000
vt 0.5218 0.3535 0.0000
vt 0.5224 0.3533 0.0000
vt 0.5228 0.3302 0.0000
vt 0.5223 0.3543 0.0000
vt 0.5229 0.3542 0.0000
vt 0.5256 0.3752 0.0000
vt 0.5252 0.3776 0.0000
vt 0.5257 0.3778 0.0000
vt 0.5251 0.3751 0.0000
vt 0.4293 0.2921 0.0000
vt 0.4311 0.2918 0.0000
vt 0.4292 0.2917 0.0000
vt 0.4312 0.2922 0.0000
vt 0.4451 0.2930 0.0000
vt 0.4451 0.2925 0.0000
vt 0.4611 0.2924 0.0000
vt 0.4611 0.2928 0.0000
vt 0.4258 0.2952 0.0000
vt 0.4262 0.2953 0.0000
vt 0.5209 0.3822 0.0000
vt 0.5211 0.3827 0.0000
vt 0.4340 0.3183 0.0000
vt 0.4355 0.3189 0.0000
vt 0.4356 0.3186 0.0000
vt 0.4339 0.3187 0.0000
vt 0.4456 0.3193 0.0000
vt 0.4456 0.3197 0.0000
vt 0.4616 0.3193 0.0000
vt 0.4616 0.3189 0.0000
vt 0.4875 0.3728 0.0000
vt 0.4870 0.3706 0.0000
vt 0.4864 0.3707 0.0000
vt 0.4870 0.3730 0.0000
vt 0.4853 0.3550 0.0000
vt 0.4859 0.3551 0.0000
vt 0.4862 0.3542 0.0000
vt 0.4857 0.3541 0.0000
vt 0.4847 0.3312 0.0000
vt 0.4841 0.3312 0.0000
vt 0.4285 0.3129 0.0000
vt 0.4288 0.3129 0.0000
vt 0.4293 0.3143 0.0000
vt 0.4289 0.3145 0.0000
vt 0.4300 0.3157 0.0000
vt 0.4297 0.3159 0.0000
vt 0.4955 0.3804 0.0000
vt 0.4956 0.3799 0.0000
vt 0.4935 0.3794 0.0000
vt 0.4934 0.3798 0.0000
vt 0.4913 0.3788 0.0000
vt 0.4916 0.3783 0.0000
vt 0.4323 0.3180 0.0000
vt 0.4325 0.3177 0.0000
vt 0.4885 0.3750 0.0000
vt 0.4880 0.3752 0.0000
vt 0.4311 0.3168 0.0000
vt 0.4309 0.3171 0.0000
vt 0.4895 0.3772 0.0000
vt 0.4899 0.3768 0.0000
vt 0.5240 0.3542 0.0000
vt 0.5245 0.3303 0.0000
vt 0.5264 0.3751 0.0000
vt 0.5212 0.3835 0.0000
vt 0.5264 0.3782 0.0000
vt 0.4842 0.3550 0.0000
vt 0.4856 0.3708 0.0000
vt 0.4826 0.3314 0.0000
vt 0.4931 0.3806 0.0000
vt 0.4954 0.3812 0.0000
vt 0.4863 0.3732 0.0000
vt 0.4909 0.3794 0.0000
vt 0.4889 0.3777 0.0000
vt 0.4873 0.3756 0.0000
# 94 texture coords

o 对象012
g 对象012
usemtl Material_0
s off
f 1/1/1 2/2/2 3/3/3 
f 3/3/3 2/2/2 4/4/4 
f 3/3/3 5/5/5 6/6/6 
f 5/5/7 3/3/8 4/4/9 
f 7/7/10 8/8/11 9/9/12 
f 8/8/13 7/7/10 10/10/14 
f 8/8/11 10/10/15 11/11/16 
f 12/12/17 11/11/16 10/10/15 
f 13/13/18 11/11/19 12/12/17 
f 14/14/20 6/6/6 15/15/21 
f 6/6/22 5/5/23 15/15/24 
f 7/7/10 16/16/25 17/17/26 
f 16/16/25 7/7/10 9/9/27 
f 14/14/28 18/18/29 19/19/30 
f 18/18/31 14/14/32 15/15/24 
f 19/19/33 18/18/29 20/20/34 
f 21/21/35 22/22/36 23/23/37 
f 23/23/37 24/24/38 21/21/35 
f 25/25/39 23/23/37 22/22/40 
f 23/23/37 25/25/39 26/26/41 
f 27/27/42 28/28/43 29/29/44 
f 28/28/43 27/27/42 30/30/45 
f 26/26/41 30/30/46 27/27/47 
f 30/30/48 26/26/41 25/25/49 
f 31/31/50 32/32/51 33/33/52 
f 31/31/53 34/34/54 32/32/51 
f 32/32/55 35/35/56 36/36/57 
f 35/35/58 32/32/55 34/34/54 
f 37/37/59 35/35/58 38/38/60 
f 35/35/58 37/37/59 36/36/57 
f 33/33/52 39/39/61 40/40/62 
f 33/33/63 40/40/64 31/31/65 
f 28/28/43 41/41/66 42/42/67 
f 42/42/67 29/29/68 28/28/43 
f 43/43/69 44/44/70 45/45/71 
f 44/44/72 43/43/73 46/46/74 
f 47/47/75 45/45/71 44/44/72 
f 44/44/72 48/48/76 47/47/75 
f 49/49/77 47/47/75 48/48/78 
f 47/47/75 49/49/77 50/50/79 
f 51/51/80 52/52/81 53/53/82 
f 53/53/82 54/54/83 51/51/80 
f 55/55/84 52/52/85 56/56/86 
f 52/52/87 55/55/84 53/53/82 
f 55/55/88 57/57/89 58/58/90 
f 57/57/91 55/55/88 56/56/92 
f 58/58/93 59/59/94 60/60/95 
f 59/59/94 58/58/93 57/57/96 
f 61/61/97 40/40/98 39/39/61 
f 40/40/98 61/61/99 62/62/100 
f 63/63/101 62/62/100 61/61/97 
f 61/61/99 64/64/102 63/63/101 
f 65/65/103 64/64/102 66/66/104 
f 64/64/102 65/65/103 63/63/105 
f 67/67/106 41/41/66 68/68/107 
f 41/41/66 67/67/108 42/42/109 
f 67/67/106 69/69/110 70/70/111 
f 69/69/110 67/67/106 68/68/112 
f 71/71/113 70/70/111 69/69/110 
f 71/71/113 69/69/110 72/72/114 
f 73/73/115 46/46/116 43/43/69 
f 43/43/69 74/74/117 73/73/115 
f 75/75/118 51/51/80 54/54/119 
f 54/54/83 76/76/120 75/75/121 
f 77/77/122 66/66/104 78/78/123 
f 66/66/104 77/77/122 65/65/103 
f 79/79/124 71/71/113 72/72/125 
f 79/79/124 72/72/125 80/80/126 
f 74/74/127 78/78/123 73/73/115 
f 78/78/123 74/74/127 77/77/128 
f 76/76/129 79/79/124 80/80/130 
f 76/76/129 80/80/130 75/75/121 
f 24/24/38 36/81/131 37/82/59 
f 36/81/57 24/24/38 23/23/132 
f 22/22/40 6/6/6 25/25/39 
f 6/6/6 22/22/40 3/3/3 
f 27/27/42 36/81/57 26/26/133 
f 36/81/57 27/27/42 32/83/55 
f 31/31/53 12/12/17 34/34/54 
f 12/12/17 10/10/134 34/34/54 
f 29/29/135 39/84/136 33/85/52 
f 39/84/61 29/29/44 42/42/67 
f 40/40/98 12/12/17 31/31/65 
f 9/9/137 8/8/11 45/45/71 
f 9/9/137 45/45/138 47/47/139 
f 53/53/82 55/55/88 48/86/140 
f 53/53/82 48/86/141 44/87/70 
f 60/60/142 48/86/140 58/58/93 
f 48/86/78 60/60/142 49/88/77 
f 58/58/90 48/86/140 55/55/88 
f 9/9/137 50/50/79 16/16/25 
f 50/50/79 9/9/137 47/47/75 
f 4/4/9 56/56/86 5/5/7 
f 56/56/92 4/4/4 57/57/89 
f 67/67/108 64/89/102 61/90/97 
f 64/89/102 67/67/106 70/70/111 
f 63/63/101 13/13/18 62/62/100 
f 45/45/138 8/8/11 43/43/69 
f 44/87/143 46/91/144 53/53/82 
f 53/53/82 46/91/74 54/54/83 
f 70/70/145 66/92/146 64/89/102 
f 66/92/147 70/70/148 71/71/113 
f 65/65/103 13/13/149 63/63/101 
f 71/71/113 78/93/150 66/92/104 
f 78/93/123 71/71/113 79/79/124 
f 77/77/122 13/13/18 65/65/103 
f 76/76/151 78/93/151 79/79/151 
f 78/93/152 76/76/152 73/94/152 
f 54/54/83 73/94/115 76/76/120 
f 73/94/115 54/54/83 46/91/153 
f 36/81/57 23/23/37 26/26/41 
f 6/6/6 14/14/28 25/25/39 
f 30/30/48 25/25/39 14/14/28 
f 27/27/42 29/29/44 33/85/52 
f 33/85/63 32/83/55 27/27/42 
f 68/68/107 20/20/154 69/69/110 
f 69/69/110 20/20/155 72/72/125 
f 72/72/114 20/20/34 80/80/126 
f 18/18/29 80/80/126 20/20/34 
f 80/80/156 18/18/29 75/75/121 
f 15/15/24 75/75/121 18/18/29 
f 75/75/121 15/15/24 51/51/80 
f 51/51/80 15/15/24 52/52/81 
f 56/56/92 52/52/157 5/5/158 
f 15/15/24 5/5/23 52/52/157 
f 13/13/18 77/77/122 11/11/19 
f 77/77/122 74/74/127 11/11/159 
f 8/8/11 74/74/127 43/43/69 
f 8/8/11 11/11/19 74/74/127 
f 22/22/40 21/21/160 1/1/161 
f 22/22/40 1/1/161 3/3/3 
f 4/4/4 2/2/162 59/59/94 
f 4/4/4 59/59/94 57/57/96 
f 35/35/163 10/10/14 7/7/164 
f 10/10/14 35/35/163 34/34/54 
f 12/12/17 62/62/165 13/13/18 
f 62/62/100 12/12/17 40/40/64 
f 30/30/48 19/19/30 28/28/166 
f 19/19/30 30/30/45 14/14/28 
f 19/19/33 41/41/66 28/28/43 
f 35/35/167 17/17/26 38/38/168 
f 17/17/26 35/35/56 7/7/164 
f 61/90/99 39/84/61 42/42/67 
f 42/42/67 67/67/106 61/90/99 
f 19/19/33 68/68/107 41/41/66 
f 68/68/169 19/19/30 20/20/34 
f 1/1/170 81/3/171 2/2/172 
f 81/3/171 82/4/173 2/2/172 
f 81/3/171 83/5/174 82/4/175 
f 83/5/174 81/3/176 84/6/177 
f 85/7/178 86/8/179 87/10/180 
f 86/8/181 85/7/182 88/9/183 
f 87/10/180 89/11/29 90/12/30 
f 89/11/29 87/10/184 86/8/185 
f 91/13/34 90/12/30 89/11/186 
f 92/14/187 93/15/188 84/6/177 
f 84/6/177 93/15/189 83/5/174 
f 85/7/190 16/16/25 88/9/183 
f 16/16/25 85/7/191 17/17/26 
f 92/14/187 94/18/192 93/15/193 
f 94/18/192 92/14/194 95/19/17 
f 95/19/17 96/20/18 94/18/192 
f 97/22/195 21/21/195 98/23/195 
f 24/24/196 98/23/196 21/21/196 
f 98/23/197 99/25/198 97/22/199 
f 99/25/200 98/23/201 100/26/202 
f 101/28/203 102/27/204 103/29/205 
f 102/27/204 101/28/206 104/30/207 
f 104/30/207 100/26/202 102/27/204 
f 100/26/202 104/30/207 99/25/198 
f 105/34/208 106/31/209 107/32/210 
f 108/33/211 107/32/212 106/31/209 
f 107/32/212 109/35/213 105/34/208 
f 109/35/214 107/32/215 110/36/216 
f 110/36/217 37/37/59 109/35/213 
f 38/38/60 109/35/213 37/37/59 
f 111/39/218 106/31/209 112/40/219 
f 106/31/209 111/39/218 108/33/211 
f 103/29/205 113/41/220 101/28/203 
f 113/41/221 103/29/222 114/42/223 
f 115/44/224 116/43/225 117/45/226 
f 116/43/227 115/44/224 118/46/228 
f 119/48/229 115/44/230 120/47/231 
f 120/47/231 115/44/224 117/45/226 
f 120/47/232 49/49/233 119/48/229 
f 49/49/233 120/47/234 50/50/79 
f 121/51/235 122/53/236 123/52/237 
f 122/53/238 121/51/239 124/54/240 
f 122/53/236 125/55/241 123/52/237 
f 126/56/242 123/52/237 125/55/241 
f 127/58/243 126/56/244 125/55/241 
f 126/56/242 127/58/243 128/57/245 
f 127/58/246 59/59/94 128/57/247 
f 59/59/94 127/58/246 60/60/142 
f 129/61/248 112/40/249 130/62/107 
f 112/40/219 129/61/248 111/39/218 
f 130/62/250 131/63/251 129/61/252 
f 129/61/248 131/63/251 132/64/253 
f 131/63/254 133/66/255 132/64/256 
f 133/66/257 131/63/254 134/65/258 
f 135/68/259 113/41/220 136/67/260 
f 114/42/261 136/67/260 113/41/221 
f 136/67/260 137/69/262 135/68/259 
f 137/69/263 136/67/260 138/70/264 
f 138/70/264 139/72/265 137/69/263 
f 139/72/265 138/70/264 140/71/266 
f 118/46/228 141/74/267 116/43/227 
f 141/74/267 118/46/268 142/73/269 
f 121/51/235 143/76/270 124/54/240 
f 143/76/271 121/51/235 144/75/272 
f 134/65/258 145/78/273 133/66/274 
f 145/78/275 134/65/258 146/77/276 
f 147/80/277 140/71/278 148/79/279 
f 140/71/266 147/80/277 139/72/280 
f 142/73/281 146/77/276 141/74/267 
f 146/77/276 142/73/269 145/78/273 
f 144/75/272 148/79/282 143/76/270 
f 148/79/279 144/75/272 147/80/283 
f 98/23/197 24/24/38 110/81/216 
f 37/82/59 110/81/216 24/24/38 
f 99/25/198 84/6/284 97/22/285 
f 97/22/199 84/6/177 81/3/171 
f 102/27/204 110/81/216 107/83/210 
f 110/81/216 102/27/204 100/26/202 
f 105/34/208 90/12/30 106/31/209 
f 90/12/30 105/34/208 87/10/180 
f 111/84/286 103/29/286 108/85/286 
f 103/29/287 111/84/287 114/42/287 
f 112/40/249 106/31/209 90/12/30 
f 88/9/183 117/45/226 86/8/288 
f 117/45/226 88/9/183 120/47/232 
f 125/55/241 122/53/238 119/86/229 
f 119/86/229 122/53/238 115/87/230 
f 119/86/229 60/60/142 127/58/246 
f 60/60/142 119/86/229 49/88/77 
f 127/58/243 125/55/241 119/86/229 
f 88/9/289 50/50/79 120/47/232 
f 50/50/79 88/9/290 16/16/25 
f 83/5/174 126/56/291 82/4/292 
f 82/4/175 126/56/242 128/57/293 
f 136/67/260 132/89/253 138/70/264 
f 132/89/256 136/67/260 129/90/248 
f 131/63/251 130/62/107 91/13/34 
f 117/45/226 116/43/227 86/8/288 
f 115/87/224 124/54/294 118/91/228 
f 124/54/294 115/87/224 122/53/238 
f 138/70/264 133/92/257 140/71/278 
f 133/92/255 138/70/264 132/89/256 
f 134/65/258 131/63/251 91/13/34 
f 145/93/273 140/71/266 133/92/257 
f 140/71/278 145/93/275 148/79/282 
f 146/77/276 134/65/258 91/13/34 
f 143/76/270 148/79/279 142/94/269 
f 142/94/269 148/79/279 145/93/273 
f 124/54/294 143/76/270 118/91/268 
f 118/91/228 143/76/270 142/94/269 
f 110/81/216 100/26/202 98/23/197 
f 99/25/198 104/30/295 92/14/187 
f 99/25/198 92/14/187 84/6/177 
f 103/29/222 107/83/215 108/85/296 
f 107/83/215 103/29/222 102/27/204 
f 135/68/297 137/69/263 96/20/18 
f 137/69/263 139/72/265 96/20/18 
f 139/72/265 147/80/277 96/20/18 
f 94/18/298 147/80/277 144/75/272 
f 147/80/277 94/18/298 96/20/18 
f 93/15/193 144/75/272 121/51/235 
f 144/75/272 93/15/299 94/18/298 
f 121/51/235 123/52/237 93/15/299 
f 83/5/300 93/15/299 123/52/301 
f 83/5/174 123/52/301 126/56/242 
f 89/11/186 146/77/276 91/13/34 
f 89/11/186 141/74/267 146/77/276 
f 86/8/288 141/74/267 89/11/186 
f 86/8/181 116/43/227 141/74/267 
f 81/3/171 1/1/302 97/22/199 
f 21/21/160 97/22/199 1/1/302 
f 128/57/247 59/59/94 82/4/173 
f 2/2/303 82/4/173 59/59/94 
f 109/35/304 87/10/304 105/34/304 
f 87/10/305 109/35/305 85/7/305 
f 90/12/30 130/62/107 112/40/249 
f 130/62/107 90/12/30 91/13/34 
f 95/19/17 104/30/295 101/28/206 
f 104/30/295 95/19/17 92/14/187 
f 95/19/17 101/28/206 113/41/220 
f 109/35/213 17/17/26 85/7/178 
f 17/17/26 109/35/213 38/38/168 
f 129/90/248 114/42/223 111/84/218 
f 114/42/223 129/90/248 136/67/260 
f 95/19/17 135/68/297 96/20/306 
f 135/68/297 95/19/17 113/41/220 
# 0 polygons - 292 triangles

