# 3ds Max Wavefront OBJ Exporter v0.99 - (c)2007 guruware
# 创建的文件:30.06.2021 14:20:18

mtllib 17.mtl

#
# object 对象017
#

v  66.0849 -854.3080 136.7994
v  64.7960 -856.0222 137.1703
v  66.0028 -854.2156 136.7086
v  64.6718 -855.9863 137.0926
v  65.7133 -856.0361 140.3546
v  64.6650 -856.0891 137.2087
v  65.5823 -856.1028 140.3933
v  60.5000 -849.1597 138.3066
v  58.8545 -851.2041 138.9035
v  60.4464 -849.0877 138.4422
v  58.8814 -851.3041 138.7729
v  67.0400 -854.1729 139.9722
v  66.9812 -854.2308 140.1036
v  67.0021 -854.3221 139.9835
v  65.6496 -856.0010 140.4878
v  66.1225 -854.1588 136.7881
v  59.9274 -855.5461 138.4589
v  60.5999 -849.0700 138.3975
v  60.4084 -855.9537 138.3186
v  60.3694 -856.0455 138.4520
v  61.2887 -856.0595 141.6430
v  61.3950 -855.9708 141.7346
v  61.4832 -849.1746 141.7175
v  61.5188 -849.0839 141.5874
v  58.8209 -851.3693 138.9131
v  59.8922 -855.6425 138.5910
v  59.7721 -851.2180 142.0882
v  61.3652 -849.1021 141.6324
v  59.8643 -851.3191 142.1842
v  59.7386 -851.3834 142.0977
v  60.8117 -855.6565 141.7823
v  60.9117 -855.5610 141.8756
v  67.2231 -852.7416 139.8947
v  66.3849 -853.7712 140.1883
v  67.2865 -852.8438 139.9427
v  66.4750 -853.8337 140.2325
v  67.3701 -852.9702 139.7992
v  67.3439 -853.0344 139.8996
v  67.3216 -852.7651 139.8471
v  65.8402 -852.4739 136.8872
v  65.9387 -852.4974 136.8396
v  65.9823 -852.8267 136.7989
v  67.3593 -853.0933 139.7935
v  65.9931 -852.7037 136.8045
v  66.8058 -854.1652 140.0509
v  66.8294 -854.2167 139.9442
v  65.8387 -852.5635 136.7941
v  65.8962 -852.7541 136.7511
v  65.0060 -853.5043 137.1893
v  65.0273 -853.5535 137.0839
v  65.3580 -853.8850 136.9023
v  65.4504 -853.9498 136.9453
v  67.1545 -853.0933 138.6977
v  67.0645 -852.9103 138.1914
v  67.1477 -852.8724 138.6587
v  67.0638 -853.1347 138.1879
v  66.8529 -853.0740 137.7171
v  66.8712 -852.8547 137.7599
v  67.1161 -852.9537 139.1965
v  67.1124 -852.7446 139.1159
v  66.5423 -852.9172 137.3314
v  66.5865 -852.7110 137.4064
v  66.2384 -852.4932 137.1655
v  66.1625 -852.6796 137.0686
v  65.8609 -852.2227 137.0608
v  65.7507 -852.3844 136.9543
v  65.4910 -851.9258 137.1024
v  65.3471 -852.0605 136.9998
v  65.1649 -851.6318 137.2865
v  64.9913 -851.7397 137.2005
v  64.9145 -851.3693 137.5948
v  64.7181 -851.4534 137.5370
v  64.7643 -851.1641 137.9973
v  64.5543 -851.2295 137.9761
v  64.7291 -851.0363 138.4545
v  64.5158 -851.0900 138.4750
v  64.8122 -850.9983 138.9218
v  64.6065 -851.0486 138.9848
v  64.8174 -851.1092 139.4556
v  65.0056 -851.0539 139.3533
v  65.1280 -851.2661 139.8413
v  65.2902 -851.1976 139.7068
v  65.5078 -851.5037 140.1041
v  65.6384 -851.4155 139.9477
v  65.9197 -851.7989 140.2184
v  66.0158 -851.6860 140.0525
v  66.3857 -851.9828 140.0108
v  66.3233 -852.1227 140.1729
v  66.7119 -852.2769 139.8267
v  66.6790 -852.4435 139.9721
v  66.9623 -852.5393 139.5184
v  66.9522 -852.7299 139.6357
v  64.4620 -852.1520 140.0331
v  64.1514 -851.9952 139.6474
v  64.8418 -852.3896 140.2960
v  65.2536 -852.6848 140.4102
v  65.6572 -853.0087 140.3648
v  66.0130 -853.3295 140.1640
v  66.2862 -853.6158 139.8276
v  66.4500 -853.8397 139.3884
v  66.4885 -853.9792 138.8895
v  66.3978 -854.0206 138.3798
v  66.1868 -853.9600 137.9090
v  65.8762 -853.8032 137.5233
v  65.4964 -853.5655 137.2605
v  65.0846 -853.2703 137.1462
v  64.6810 -852.9465 137.1917
v  64.3252 -852.6257 137.3924
v  64.0520 -852.3393 137.7289
v  63.8882 -852.1155 138.1680
v  63.8497 -851.9760 138.6668
v  63.9404 -851.9345 139.1767
# 112 vertices

vn 0.3764 -0.4573 -0.8057
vn 0.3735 -0.4559 -0.8079
vn 0.4214 -0.8982 -0.1253
vn 0.4208 -0.8985 -0.1251
vn -0.7326 0.4373 -0.5217
vn -0.7409 0.4510 -0.4977
vn 0.9236 -0.2107 0.3203
vn 0.5072 -0.7418 0.4387
vn 0.6081 -0.2116 -0.7651
vn 0.6082 -0.2113 -0.7651
vn 0.7793 -0.5960 -0.1935
vn 0.2938 -0.0488 0.9546
vn 0.7648 -0.6160 -0.1888
vn 0.2938 -0.0489 0.9546
vn 0.3076 0.0194 0.9513
vn 0.7561 -0.6162 -0.2205
vn 0.7715 -0.5952 -0.2249
vn 0.6570 0.7370 -0.1587
vn 0.7715 -0.5951 -0.2249
vn 0.6423 0.7373 -0.2092
vn -0.2957 -0.0042 -0.9553
vn -0.3097 -0.0055 -0.9508
vn -0.2570 0.0264 -0.9660
vn -0.0197 -0.9992 -0.0347
vn -0.2760 -0.0369 -0.9604
vn 0.1889 -0.7410 -0.6444
vn 0.6173 0.7587 -0.2080
vn 0.6423 0.7373 -0.2093
vn -0.2551 0.0275 -0.9665
vn -0.2550 0.0275 -0.9665
vn -0.2570 0.0265 -0.9660
vn -0.2835 -0.1089 -0.9528
vn -0.2761 -0.0369 -0.9604
vn -0.0197 -0.9992 -0.0346
vn -0.0939 -0.9956 0.0003
vn -0.2834 -0.1089 -0.9528
vn -0.0009 -0.9995 0.0313
vn -0.0822 -0.9958 0.0413
vn -0.0938 -0.9956 0.0002
vn -0.0009 -0.9995 0.0312
vn 0.2707 -0.1125 0.9561
vn 0.2708 -0.1125 0.9561
vn -0.0008 -0.9995 0.0312
vn 0.2939 -0.0488 0.9546
vn 0.2921 0.0297 0.9559
vn 0.3076 0.0195 0.9513
vn 0.2920 0.0298 0.9559
vn 0.6351 0.7585 -0.1462
vn 0.6174 0.7587 -0.2080
vn 0.2707 -0.1124 0.9561
vn -0.9430 -0.2370 0.2336
vn -0.7716 0.5954 0.2239
vn -0.3097 -0.0056 -0.9508
vn -0.9142 -0.3270 0.2394
vn -0.2956 -0.0042 -0.9553
vn -0.7601 0.5956 0.2599
vn -0.7217 0.6474 0.2450
vn -0.7601 0.5955 0.2599
vn 0.2337 0.0031 0.9723
vn -0.7601 0.5955 0.2598
vn -0.9233 -0.2372 0.3019
vn -0.9233 -0.2372 0.3020
vn -0.9430 -0.2370 0.2337
vn -0.7601 0.5956 0.2598
vn -0.7716 0.5953 0.2239
vn -0.9021 -0.3274 0.2811
vn -0.9233 -0.2373 0.3019
vn -0.9021 -0.3274 0.2810
vn 0.2620 -0.0075 0.9650
vn -0.9233 -0.2373 0.3020
vn -0.9021 -0.3273 0.2811
vn -0.7304 0.6492 0.2123
vn 0.6174 0.7586 -0.2081
vn -0.2570 0.0264 -0.9661
vn -0.7217 0.6474 0.2449
vn 0.6351 0.7584 -0.1462
vn -0.7304 0.6492 0.2122
vn 0.6351 0.7585 -0.1461
vn -0.0821 -0.9958 0.0412
vn -0.0821 -0.9958 0.0413
vn 0.2620 -0.0074 0.9650
vn -0.9142 -0.3271 0.2394
vn -0.0822 -0.9958 0.0412
vn -0.9142 -0.3271 0.2395
vn -0.0938 -0.9956 0.0003
vn 0.2921 0.0298 0.9559
vn -0.6150 0.6974 0.3680
vn -0.6579 0.6461 0.3869
vn 0.2022 0.1921 0.9603
vn 0.3109 0.0233 0.9502
vn 0.2022 0.1920 0.9603
vn 0.9099 0.1698 -0.3786
vn 0.5713 -0.1375 0.8091
vn 0.7525 0.6019 -0.2673
vn 0.7526 0.6018 -0.2673
vn -0.6325 0.7008 0.3299
vn -0.6325 0.7009 0.3299
vn 0.7330 0.6063 -0.3084
vn 0.8057 -0.4007 -0.4361
vn 0.8283 -0.4051 -0.3871
vn 0.9099 0.1699 -0.3786
vn 0.8057 -0.4007 -0.4362
vn 0.8912 0.1736 -0.4191
vn 0.5586 -0.1560 0.8146
vn 0.5587 -0.1559 0.8146
vn 0.8124 -0.4353 -0.3880
vn 0.8912 0.1735 -0.4191
vn -0.5832 0.3387 -0.7383
vn -0.5832 0.3386 -0.7384
vn -0.2508 0.0162 -0.9679
vn -0.6782 0.6499 0.3430
vn -0.5832 0.3387 -0.7384
vn -0.5163 0.1779 -0.8377
vn 0.8058 -0.4007 -0.4362
vn -0.2637 -0.0025 -0.9646
vn -0.2508 0.0161 -0.9679
vn -0.2637 -0.0026 -0.9646
vn 0.7941 -0.4318 -0.4277
vn 0.8124 -0.4352 -0.3880
vn 0.7941 -0.4319 -0.4277
vn -0.6150 0.6973 0.3680
vn 0.9098 0.1698 -0.3786
vn 0.8058 -0.4007 -0.4361
vn 0.8582 -0.5111 0.0479
vn 0.9148 0.2951 -0.2758
vn 0.7661 0.6248 -0.1505
vn 0.8049 -0.5341 -0.2584
vn 0.8049 -0.5342 -0.2584
vn 0.6758 -0.5014 -0.5403
vn 0.9148 0.2952 -0.2758
vn 0.7763 0.5306 -0.3403
vn 0.8343 -0.4284 0.3471
vn 0.7661 0.6248 -0.1506
vn 0.6934 0.7097 -0.1246
vn 0.8582 -0.5111 0.0480
vn 0.4877 -0.4098 -0.7709
vn 0.7763 0.5306 -0.3404
vn 0.7762 0.5306 -0.3404
vn 0.6639 0.6899 -0.2886
vn 0.6208 0.7396 -0.2600
vn 0.6639 0.6899 -0.2885
vn 0.2576 -0.2706 -0.9276
vn 0.2575 -0.2706 -0.9276
vn 0.5995 0.7629 -0.2420
vn 0.6209 0.7395 -0.2600
vn 0.0067 -0.0997 -0.9950
vn 0.0067 -0.0998 -0.9950
vn 0.5839 0.7771 -0.2350
vn -0.2362 0.0923 -0.9673
vn 0.0066 -0.0997 -0.9950
vn 0.5838 0.7771 -0.2350
vn 0.5680 0.7906 -0.2289
vn -0.4523 0.2811 -0.8464
vn 0.5680 0.7905 -0.2289
vn 0.5838 0.7771 -0.2349
vn 0.5464 0.8071 -0.2237
vn 0.5464 0.8071 -0.2236
vn -0.6185 0.4499 -0.6442
vn 0.5073 0.8347 -0.2145
vn -0.7185 0.5822 -0.3806
vn 0.5073 0.8346 -0.2146
vn 0.5463 0.8071 -0.2237
vn 0.4123 0.8926 -0.1827
vn -0.7184 0.5822 -0.3806
vn -0.7424 0.6650 -0.0813
vn 0.4123 0.8926 -0.1826
vn 0.0801 0.9968 -0.0053
vn -0.7424 0.6650 -0.0814
vn -0.6860 0.6922 0.2243
vn -0.5598 0.6552 0.5072
vn 0.0800 0.9968 -0.0052
vn 0.3589 0.9331 0.0203
vn 0.0800 0.9968 -0.0053
vn -0.3716 0.5636 0.7378
vn 0.3589 0.9331 0.0202
vn 0.5304 0.8463 -0.0488
vn 0.3590 0.9331 0.0203
vn -0.3716 0.5635 0.7378
vn -0.1413 0.4242 0.8945
vn 0.5829 0.8086 -0.0801
vn 0.1064 0.2493 0.9626
vn 0.5828 0.8086 -0.0801
vn 0.6069 0.7886 -0.0989
vn 0.6230 0.7750 -0.1059
vn 0.3524 0.0613 0.9338
vn 0.6069 0.7886 -0.0988
vn 0.6387 0.7613 -0.1119
vn 0.5684 -0.1275 0.8128
vn 0.6590 0.7430 -0.1168
vn 0.7345 -0.2962 0.6106
vn 0.6386 0.7613 -0.1118
vn 0.6934 0.7097 -0.1247
vn 0.8343 -0.4284 0.3470
vn 0.6386 0.7613 -0.1119
vn 0.5463 0.8072 -0.2236
vn 0.7661 0.6249 -0.1505
vn 0.7763 0.5307 -0.3403
vn -0.4315 0.4886 0.7584
vn -0.6208 0.5808 0.5265
vn -0.1998 0.3485 0.9158
vn -0.4314 0.4886 0.7584
vn 0.0514 0.1743 0.9833
vn 0.2974 -0.0168 0.9546
vn 0.5142 -0.2062 0.8325
vn 0.6806 -0.3754 0.6291
vn 0.7806 -0.5079 0.3644
vn 0.8043 -0.5908 0.0642
vn 0.7496 -0.6160 -0.2423
vn 0.6217 -0.5811 -0.5251
vn 0.6217 -0.5811 -0.5252
vn 0.4331 -0.4895 -0.7569
vn 0.4331 -0.4895 -0.7568
vn 0.2021 -0.3500 -0.9147
vn -0.0488 -0.1762 -0.9831
vn -0.2950 0.0149 -0.9554
vn -0.5125 0.2047 -0.8340
vn -0.5125 0.2046 -0.8340
vn -0.2361 0.0922 -0.9673
vn -0.6797 0.3744 -0.6307
vn -0.7803 0.5074 -0.3656
vn -0.7803 0.5075 -0.3655
vn -0.8043 0.5907 -0.0645
vn -0.7803 0.5075 -0.3656
vn -0.6860 0.6921 0.2243
vn -0.8043 0.5907 -0.0644
vn -0.7494 0.6160 0.2430
vn -0.6208 0.5808 0.5266
vn -0.7493 0.6160 0.2430
# 228 vertex normals

vt 0.3977 0.9049 0.0000
vt 0.3904 0.9053 0.0000
vt 0.3978 0.9044 0.0000
vt 0.3903 0.9048 0.0000
vt 0.5746 0.7952 0.0000
vt 0.5752 0.8067 0.0000
vt 0.5746 0.8067 0.0000
vt 0.5752 0.7952 0.0000
vt 0.3977 0.8791 0.0000
vt 0.3887 0.8790 0.0000
vt 0.3977 0.8786 0.0000
vt 0.3886 0.8795 0.0000
vt 0.3567 0.8798 0.0000
vt 0.3572 0.8797 0.0000
vt 0.3573 0.8802 0.0000
vt 0.3652 0.8802 0.0000
vt 0.3646 0.8805 0.0000
vt 0.3647 0.8800 0.0000
vt 0.3983 0.9046 0.0000
vt 0.5671 0.7952 0.0000
vt 0.5671 0.8067 0.0000
vt 0.6451 0.7952 0.0000
vt 0.6456 0.8067 0.0000
vt 0.6451 0.8067 0.0000
vt 0.6456 0.7952 0.0000
vt 0.3805 0.8914 0.0000
vt 0.3898 0.9050 0.0000
vt 0.3983 0.8791 0.0000
vt 0.3806 0.8935 0.0000
vt 0.3800 0.8937 0.0000
vt 0.5908 0.7952 0.0000
vt 0.5908 0.8067 0.0000
vt 0.3744 0.8688 0.0000
vt 0.3750 0.8689 0.0000
vt 0.3573 0.8544 0.0000
vt 0.3567 0.8543 0.0000
vt 0.6186 0.8067 0.0000
vt 0.6186 0.7952 0.0000
vt 0.3881 0.8793 0.0000
vt 0.3799 0.8913 0.0000
vt 0.3663 0.8542 0.0000
vt 0.3573 0.8538 0.0000
vt 0.3664 0.8547 0.0000
vt 0.3669 0.8545 0.0000
vt 0.6087 0.7952 0.0000
vt 0.6081 0.8067 0.0000
vt 0.6081 0.7952 0.0000
vt 0.6087 0.8067 0.0000
vt 0.5930 0.7952 0.0000
vt 0.5930 0.8067 0.0000
vt 0.3745 0.8666 0.0000
vt 0.3751 0.8666 0.0000
vt 0.6180 0.8067 0.0000
vt 0.6180 0.7952 0.0000
vt 0.3561 0.9035 0.0000
vt 0.3493 0.9069 0.0000
vt 0.3555 0.9031 0.0000
vt 0.3491 0.9063 0.0000
vt 0.3552 0.9021 0.0000
vt 0.3546 0.9025 0.0000
vt 0.3561 0.9029 0.0000
vt 0.3567 0.9033 0.0000
vt 0.3575 0.9183 0.0000
vt 0.3580 0.9180 0.0000
vt 0.3597 0.9185 0.0000
vt 0.3579 0.9031 0.0000
vt 0.3586 0.9031 0.0000
vt 0.3591 0.9182 0.0000
vt 0.3480 0.9038 0.0000
vt 0.3545 0.9019 0.0000
vt 0.3478 0.9033 0.0000
vt 0.3581 0.9186 0.0000
vt 0.3591 0.9188 0.0000
vt 0.3567 0.9245 0.0000
vt 0.3573 0.9247 0.0000
vt 0.3606 0.9245 0.0000
vt 0.3612 0.9243 0.0000
vt 0.3661 0.9043 0.0000
vt 0.5160 0.8003 0.0000
vt 0.5186 0.8015 0.0000
vt 0.5160 0.8015 0.0000
vt 0.5186 0.8003 0.0000
vt 0.4653 0.8003 0.0000
vt 0.4679 0.8003 0.0000
vt 0.4653 0.8015 0.0000
vt 0.4679 0.8015 0.0000
vt 0.5134 0.8003 0.0000
vt 0.5134 0.8015 0.0000
vt 0.4706 0.8003 0.0000
vt 0.4706 0.8015 0.0000
vt 0.4733 0.8015 0.0000
vt 0.4733 0.8003 0.0000
vt 0.4759 0.8015 0.0000
vt 0.4759 0.8003 0.0000
vt 0.4786 0.8015 0.0000
vt 0.4786 0.8003 0.0000
vt 0.4813 0.8015 0.0000
vt 0.4813 0.8003 0.0000
vt 0.4839 0.8015 0.0000
vt 0.4839 0.8003 0.0000
vt 0.4866 0.8015 0.0000
vt 0.4866 0.8003 0.0000
vt 0.4893 0.8015 0.0000
vt 0.4893 0.8003 0.0000
vt 0.4920 0.8015 0.0000
vt 0.4920 0.8003 0.0000
vt 0.4947 0.8003 0.0000
vt 0.4947 0.8015 0.0000
vt 0.4973 0.8003 0.0000
vt 0.4973 0.8015 0.0000
vt 0.5000 0.8003 0.0000
vt 0.5000 0.8015 0.0000
vt 0.5027 0.8003 0.0000
vt 0.5027 0.8015 0.0000
vt 0.5054 0.8015 0.0000
vt 0.5054 0.8003 0.0000
vt 0.5080 0.8015 0.0000
vt 0.5080 0.8003 0.0000
vt 0.5107 0.8015 0.0000
vt 0.5107 0.8003 0.0000
vt 0.1285 0.8939 0.0000
vt 0.1309 0.8935 0.0000
vt 0.1334 0.8939 0.0000
vt 0.1230 0.9014 0.0000
vt 0.1384 0.9038 0.0000
vt 0.1234 0.9038 0.0000
vt 0.1388 0.9014 0.0000
vt 0.1234 0.8989 0.0000
vt 0.1384 0.8989 0.0000
vt 0.1245 0.8967 0.0000
vt 0.1373 0.8967 0.0000
vt 0.1263 0.8950 0.0000
vt 0.1356 0.8950 0.0000
vt 0.1373 0.9060 0.0000
vt 0.1245 0.9060 0.0000
vt 0.1334 0.9089 0.0000
vt 0.1309 0.9093 0.0000
vt 0.1285 0.9089 0.0000
vt 0.1356 0.9078 0.0000
vt 0.1263 0.9078 0.0000
vt 0.4973 0.7945 0.0000
vt 0.4947 0.7945 0.0000
vt 0.5000 0.7945 0.0000
vt 0.5027 0.7945 0.0000
vt 0.5054 0.7945 0.0000
vt 0.5080 0.7945 0.0000
vt 0.5107 0.7945 0.0000
vt 0.5134 0.7945 0.0000
vt 0.5160 0.7945 0.0000
vt 0.5186 0.7945 0.0000
vt 0.4653 0.7945 0.0000
vt 0.4679 0.7945 0.0000
vt 0.4706 0.7945 0.0000
vt 0.4733 0.7945 0.0000
vt 0.4759 0.7945 0.0000
vt 0.4786 0.7945 0.0000
vt 0.4813 0.7945 0.0000
vt 0.4839 0.7945 0.0000
vt 0.4866 0.7945 0.0000
vt 0.4893 0.7945 0.0000
vt 0.4920 0.7945 0.0000
# 161 texture coords

o 对象017
g 对象017
usemtl Material_2
s off
f 1/1/1 2/2/1 3/3/1 
f 4/4/2 3/3/2 2/2/2 
f 5/5/3 6/6/3 2/7/3 
f 6/6/4 5/5/4 7/8/4 
f 8/9/5 9/10/5 10/11/5 
f 9/10/6 8/9/6 11/12/6 
f 12/13/7 13/14/7 14/15/7 
f 7/16/8 5/17/8 15/18/8 
f 3/3/9 16/19/10 1/1/9 
f 14/15/11 15/18/12 5/17/13 
f 15/18/14 14/15/11 13/14/15 
f 5/5/13 2/7/16 14/20/11 
f 14/20/11 2/7/16 1/21/17 
f 12/22/18 1/23/19 16/24/20 
f 1/23/17 12/22/18 14/25/11 
f 17/26/21 11/12/22 8/9/23 
f 6/27/24 4/4/25 2/2/26 
f 18/28/27 16/19/28 3/3/29 
f 18/28/27 3/3/30 8/9/31 
f 19/29/32 4/4/33 6/27/24 
f 6/27/34 20/30/35 19/29/36 
f 7/8/37 21/31/38 20/32/39 
f 7/8/40 20/32/39 6/6/24 
f 7/16/40 22/33/41 21/34/38 
f 22/33/42 7/16/43 15/18/44 
f 12/13/18 23/35/45 13/14/46 
f 23/35/47 12/13/18 24/36/48 
f 18/37/49 12/22/18 16/24/28 
f 12/22/18 18/37/49 24/38/48 
f 22/33/50 15/18/12 13/14/46 
f 25/39/51 9/10/52 11/12/53 
f 25/39/51 17/26/21 26/40/54 
f 17/26/55 25/39/51 11/12/53 
f 27/41/56 23/35/47 28/42/57 
f 23/35/47 27/41/58 29/43/59 
f 29/43/59 27/41/60 30/44/61 
f 27/45/58 25/46/51 30/47/62 
f 25/46/63 27/45/64 9/48/65 
f 31/49/66 30/47/67 25/46/63 
f 31/49/68 25/46/63 26/50/54 
f 32/51/69 29/43/59 30/44/67 
f 30/44/70 31/52/71 32/51/69 
f 10/11/72 18/28/73 8/9/74 
f 23/35/47 24/36/48 28/42/75 
f 24/38/76 10/53/72 28/54/57 
f 10/53/77 24/38/78 18/37/49 
f 28/54/75 9/48/52 27/45/64 
f 9/48/52 28/54/75 10/53/72 
f 22/33/50 32/51/69 21/34/79 
f 21/34/80 32/51/81 31/52/68 
f 31/49/71 26/50/82 21/31/80 
f 21/31/83 26/50/84 20/32/39 
f 20/30/85 26/40/82 19/29/32 
f 19/29/32 26/40/54 17/26/55 
f 17/26/21 3/3/30 19/29/32 
f 3/3/30 17/26/21 8/9/23 
f 4/4/25 19/29/32 3/3/30 
f 23/35/86 29/43/59 32/51/69 
f 13/14/46 32/51/69 22/33/41 
f 32/51/69 13/14/46 23/35/47 
f 33/55/87 34/56/88 35/57/89 
f 36/58/90 35/57/91 34/56/88 
f 37/59/92 35/57/89 38/60/93 
f 35/57/91 37/59/92 39/61/94 
f 39/62/95 40/63/96 33/55/87 
f 40/63/97 39/62/94 41/64/98 
f 42/65/99 37/66/92 43/67/100 
f 37/66/101 42/65/102 44/68/103 
f 38/60/93 45/69/104 43/70/100 
f 43/70/100 45/69/105 46/71/106 
f 44/68/107 47/72/108 41/64/98 
f 47/72/109 44/68/103 48/73/110 
f 47/72/108 49/74/111 40/63/96 
f 49/74/111 47/72/112 50/75/113 
f 42/65/114 51/76/115 48/73/116 
f 51/76/117 42/65/99 52/77/118 
f 38/60/93 36/58/90 45/69/104 
f 36/58/90 38/60/93 35/57/89 
f 50/75/113 47/72/108 48/73/116 
f 48/73/116 51/76/117 50/75/113 
f 46/78/119 52/77/120 43/67/100 
f 43/67/100 52/77/118 42/65/99 
f 33/55/87 49/74/111 34/56/88 
f 49/74/111 33/55/121 40/63/96 
f 41/64/98 39/62/94 37/66/92 
f 37/66/92 44/68/103 41/64/98 
f 35/57/89 39/61/94 33/55/87 
f 37/59/122 38/60/93 43/70/100 
f 47/72/108 40/63/96 41/64/98 
f 42/65/123 48/73/116 44/68/103 
f 53/79/124 54/80/125 55/81/126 
f 54/80/125 53/79/124 56/82/127 
f 56/83/128 57/84/129 54/85/125 
f 54/85/130 57/84/129 58/86/131 
f 59/87/132 55/81/133 60/88/134 
f 55/81/126 59/87/132 53/79/135 
f 61/89/136 58/86/137 57/84/129 
f 58/86/138 61/89/136 62/90/139 
f 63/91/140 62/90/141 64/92/142 
f 64/92/143 62/90/141 61/89/136 
f 65/93/144 63/91/145 66/94/146 
f 63/91/140 64/92/143 66/94/147 
f 67/95/148 66/94/147 68/96/149 
f 66/94/150 67/95/151 65/93/144 
f 69/97/152 68/96/149 70/98/153 
f 68/96/149 69/97/154 67/95/155 
f 70/98/153 71/99/156 69/97/152 
f 71/99/157 70/98/153 72/100/158 
f 73/101/159 72/100/158 74/102/160 
f 72/100/158 73/101/161 71/99/162 
f 75/103/163 74/102/164 76/104/165 
f 74/102/164 75/103/166 73/101/159 
f 77/105/167 76/104/168 78/106/169 
f 76/104/168 77/105/167 75/103/163 
f 78/106/169 79/107/170 77/105/171 
f 80/108/172 77/105/173 79/107/170 
f 79/107/170 81/109/174 80/108/175 
f 82/110/176 80/108/177 81/109/174 
f 81/109/178 83/111/179 82/110/176 
f 82/110/176 83/111/179 84/112/180 
f 83/111/179 85/113/181 84/112/182 
f 84/112/180 85/113/181 86/114/183 
f 87/115/184 85/113/181 88/116/185 
f 85/113/181 87/115/184 86/114/186 
f 89/117/187 88/116/185 90/118/188 
f 88/116/185 89/117/187 87/115/184 
f 91/119/189 90/118/188 92/120/190 
f 90/118/188 91/119/189 89/117/191 
f 92/120/190 60/88/134 91/119/189 
f 60/88/192 92/120/190 59/87/193 
f 75/121/166 77/122/171 80/123/172 
f 67/124/148 89/125/194 65/126/144 
f 89/125/194 67/124/148 87/127/184 
f 69/128/154 87/127/184 67/124/148 
f 87/127/184 69/128/154 86/129/186 
f 71/130/195 86/129/186 69/128/154 
f 86/129/186 71/130/157 84/131/180 
f 73/132/161 84/131/180 71/130/157 
f 84/131/180 73/132/161 82/133/176 
f 75/121/166 82/133/176 73/132/161 
f 82/133/176 75/121/166 80/123/172 
f 65/126/144 91/134/189 63/135/140 
f 91/134/189 65/126/144 89/125/194 
f 55/136/196 54/137/130 58/138/197 
f 63/135/140 91/134/189 60/139/134 
f 63/135/140 60/139/192 62/140/139 
f 55/136/196 62/140/139 60/139/192 
f 62/140/139 55/136/133 58/138/197 
f 93/141/198 79/107/170 94/142/199 
f 79/107/170 93/141/198 81/109/174 
f 95/143/200 83/111/179 81/109/178 
f 95/143/200 81/109/178 93/141/201 
f 96/144/202 85/113/181 83/111/179 
f 96/144/202 83/111/179 95/143/200 
f 88/116/185 96/144/202 97/145/203 
f 96/144/202 88/116/185 85/113/181 
f 90/118/188 97/145/203 98/146/204 
f 97/145/203 90/118/188 88/116/185 
f 92/120/190 98/146/204 99/147/205 
f 98/146/204 92/120/190 90/118/188 
f 99/147/205 59/87/193 92/120/190 
f 59/87/132 99/147/205 100/148/206 
f 100/148/206 53/79/135 59/87/132 
f 53/79/124 100/148/206 101/149/207 
f 53/79/124 101/149/207 102/150/208 
f 53/79/124 102/150/208 56/82/127 
f 56/83/128 102/151/208 103/152/209 
f 56/83/128 103/152/210 57/84/129 
f 61/89/136 103/152/209 104/153/211 
f 103/152/210 61/89/136 57/84/129 
f 64/92/143 104/153/212 105/154/213 
f 104/153/211 64/92/143 61/89/136 
f 66/94/147 105/154/213 106/155/214 
f 105/154/213 66/94/147 64/92/143 
f 66/94/147 107/156/215 68/96/149 
f 107/156/215 66/94/150 106/155/214 
f 68/96/149 108/157/216 70/98/153 
f 108/157/217 68/96/218 107/156/215 
f 70/98/153 109/158/219 72/100/158 
f 109/158/219 70/98/153 108/157/216 
f 72/100/158 110/159/220 74/102/160 
f 110/159/221 72/100/158 109/158/219 
f 74/102/164 111/160/222 76/104/165 
f 111/160/222 74/102/160 110/159/223 
f 78/106/224 111/160/225 112/161/226 
f 111/160/222 78/106/169 76/104/168 
f 79/107/170 112/161/226 94/142/227 
f 112/161/228 79/107/170 78/106/169 
# 0 polygons - 188 triangles

