# 3ds Max Wavefront OBJ Exporter v0.99 - (c)2007 guruware
# 创建的文件:30.06.2021 14:17:16

mtllib 4.mtl

#
# object 对象004
#

v  -99.7971 17.1943 -30.8586
v  -91.3052 17.1133 -80.7693
v  -99.8052 17.0696 -30.8571
v  -91.3100 16.9925 -80.7771
v  -99.6670 17.0082 -29.9540
v  -99.4688 16.9691 -29.3954
v  -99.4624 17.0918 -29.3847
v  -99.6595 17.1320 -29.9513
v  -98.9476 17.0432 -28.9498
v  -98.9533 16.9219 -28.9647
v  -91.2547 16.9953 -80.8651
v  -91.1369 16.8053 -80.8314
v  -91.1733 16.7792 -80.7654
v  -99.6414 16.8348 -30.8600
v  -91.1219 21.0527 -80.6515
v  -91.1260 17.1143 -80.9456
v  -91.2499 17.1157 -80.8574
v  -90.9980 21.0514 -80.7397
v  -98.9291 16.6837 -29.1948
v  -99.3179 16.7239 -29.5514
v  -99.5093 16.7682 -30.0362
v  -91.1307 16.9943 -80.9533
v  -91.0297 16.9903 -80.9764
v  -91.0627 16.7783 -80.8440
v  -91.0806 16.7331 -80.7518
v  -99.5274 16.7844 -30.9010
v  -91.1772 21.0502 -80.5634
v  -90.8969 21.0474 -80.7628
v  -91.0249 17.1103 -80.9688
v  -99.2239 16.6700 -29.6673
v  -98.9060 16.6298 -29.3533
v  -99.4055 16.7160 -30.1131
v  -98.4962 20.5842 -32.2519
v  -98.2086 20.4855 -30.4584
v  -97.7202 20.4366 -29.8468
v  -98.3874 20.5237 -31.1491
v  -98.3409 16.8923 -29.0609
v  -97.9480 17.0168 -29.5808
v  -98.3349 17.0151 -29.0467
v  -97.9564 16.8930 -29.5783
v  -88.9030 20.9043 -80.2722
v  -89.0310 16.9673 -80.4782
v  -89.1185 16.9801 -80.6025
v  -88.9905 20.9172 -80.3966
v  -88.8801 20.8967 -80.1708
v  -89.0081 16.9598 -80.3767
v  -89.2061 16.9887 -80.6579
v  -89.0782 20.9258 -80.4519
v  -97.8042 16.6684 -30.5212
v  -89.1658 16.6450 -80.4223
v  -97.7027 16.7044 -30.4449
v  -89.2617 16.6115 -80.4410
v  -98.4617 16.6654 -29.2692
v  -98.5197 16.6216 -29.4133
v  -98.1900 16.6339 -29.8080
v  -98.1098 16.6737 -29.7010
v  -89.2109 16.8687 -80.6656
v  -89.1758 16.6742 -80.4962
v  -89.2439 16.6567 -80.5332
v  -89.1233 16.8601 -80.6102
v  -89.0358 16.8470 -80.4859
v  -89.0129 16.8390 -80.3845
v  -97.5195 16.9161 -30.3887
v  -97.5111 17.0408 -30.3914
v  -96.1995 20.4307 -31.8562
v  -97.0610 20.4087 -30.2569
v  -96.6651 20.4085 -30.8520
v  -90.1711 16.6723 -80.5964
v  -98.5832 16.7264 -31.2680
v  -90.1533 16.7175 -80.6886
v  -90.1203 16.9295 -80.8210
v  -90.1155 17.0495 -80.8133
v  -89.9876 20.9866 -80.6074
v  -98.7435 16.6750 -30.3263
v  -98.8468 16.6458 -29.7089
v  -90.5289 24.9871 -83.8633
v  -98.6829 27.3640 -41.2425
v  -90.4010 28.9240 -83.6573
v  -98.3967 23.9741 -37.3646
v  -90.3457 28.9267 -83.7454
v  -90.4737 24.9897 -83.9514
v  -90.3497 24.9885 -84.0396
v  -90.2218 28.9256 -83.8336
v  -90.1207 28.9216 -83.8567
v  -90.2487 24.9845 -84.0627
v  -89.2113 28.8608 -83.7013
v  -89.3393 24.9237 -83.9072
v  -88.3019 28.8000 -83.5459
v  -88.4299 24.8629 -83.7518
v  -88.2143 28.7914 -83.4905
v  -88.3423 24.8543 -83.6965
v  -88.1268 28.7784 -83.3662
v  -88.2547 24.8414 -83.5722
v  -88.1039 28.7705 -83.2647
v  -88.2319 24.8336 -83.4707
v  -96.0994 23.8205 -36.9735
v  -96.3864 27.2104 -40.8461
v  -96.8404 27.1920 -39.9186
v  -96.6131 23.8003 -35.6443
v  -97.2487 27.1960 -39.2386
v  -96.9771 23.8023 -35.2635
v  -97.9280 27.2236 -38.6934
v  -97.6317 23.8301 -34.8843
v  -98.1389 23.8791 -35.3698
v  -98.4165 27.2727 -39.3045
v  -98.3498 23.9154 -35.8449
v  -98.5703 27.3072 -40.1641
v  -97.1527 30.7538 -42.8165
v  -90.7934 32.8609 -79.9455
v  -90.7380 32.8637 -80.0336
v  -90.6141 32.8627 -80.1218
v  -90.5130 32.8587 -80.1449
v  -89.6036 32.7979 -79.9895
v  -88.6943 32.7371 -79.8341
v  -88.6066 32.7285 -79.7787
v  -88.5191 32.7154 -79.6544
v  -88.4963 32.7073 -79.5530
v  -94.8557 30.6003 -42.4240
v  -95.3092 30.5838 -41.4986
v  -95.6960 30.5896 -40.9635
v  -96.3465 30.6171 -40.6115
v  -96.8444 30.6664 -41.1597
v  -97.0317 30.6989 -41.7945
# 123 vertices

vn -0.9454 0.2885 -0.1518
vn -0.9871 0.0513 -0.1515
vn -0.9110 -0.3843 -0.1496
vn -0.9871 0.0513 -0.1514
vn -0.9149 -0.3725 -0.1558
vn -0.9110 -0.3843 -0.1497
vn -0.8956 -0.4057 0.1827
vn -0.7450 -0.4638 0.4795
vn -0.7092 0.4236 0.5636
vn -0.7092 0.4236 0.5635
vn -0.8860 0.3965 0.2405
vn -0.3133 0.3534 0.8815
vn -0.7450 -0.4638 0.4794
vn -0.3133 0.3533 0.8815
vn -0.2823 -0.5173 0.8079
vn -0.6812 -0.2907 -0.6719
vn -0.4892 -0.5425 -0.6829
vn -0.7340 -0.6677 -0.1246
vn -0.9110 -0.3844 -0.1496
vn -0.7340 -0.6676 -0.1246
vn -0.7474 -0.6530 -0.1228
vn -0.9110 -0.3844 -0.1497
vn -0.7127 -0.1824 -0.6773
vn -0.4398 0.0616 -0.8960
vn -0.6996 0.0604 -0.7120
vn -0.7127 -0.1824 -0.6774
vn -0.4459 -0.3027 -0.8424
vn -0.2679 -0.7572 0.5957
vn -0.6033 -0.7287 0.3240
vn -0.2679 -0.7572 0.5958
vn -0.7237 -0.6798 0.1192
vn -0.6034 -0.7287 0.3240
vn -0.4142 -0.2910 -0.8624
vn 0.1030 -0.3562 -0.9287
vn 0.0518 -0.6612 -0.7484
vn -0.4142 -0.2909 -0.8625
vn -0.1030 -0.9945 -0.0174
vn -0.1417 -0.9896 -0.0241
vn -0.9869 0.0261 -0.1594
vn -0.4398 0.0615 -0.8960
vn 0.0936 -0.3804 -0.9201
vn 0.1336 0.0477 -0.9899
vn -0.1827 -0.9832 0.0020
vn -0.1117 -0.9867 0.1180
vn -0.1533 -0.9868 -0.0524
vn -0.1031 -0.9945 -0.0173
vn -0.4142 -0.2909 -0.8624
vn -0.4141 -0.2909 -0.8625
vn -0.9148 -0.3726 -0.1558
vn -0.9703 0.1872 -0.1532
vn -0.9869 0.0262 -0.1593
vn -0.6973 0.5615 0.4455
vn -0.0318 0.5968 0.8018
vn -0.8859 0.3965 0.2405
vn -0.9095 0.3725 0.1845
vn -0.9703 0.1873 -0.1532
vn -0.7474 -0.6529 -0.1228
vn 0.4222 -0.5655 0.7085
vn 0.8377 -0.1184 0.5332
vn 0.4617 0.0830 0.8832
vn 0.7360 -0.5031 0.4529
vn 0.8812 -0.2308 -0.4126
vn 0.8991 -0.0064 -0.4377
vn 0.7189 0.0131 -0.6950
vn 0.6675 -0.3403 -0.6623
vn 0.9870 -0.0264 0.1583
vn 0.9874 -0.0512 0.1498
vn 0.8991 -0.0063 -0.4377
vn 0.2107 0.0445 -0.9765
vn 0.1699 -0.3723 -0.9125
vn 0.6675 -0.3403 -0.6622
vn 0.0136 -0.9999 0.0023
vn 0.6527 -0.7493 0.1117
vn 0.6524 -0.7490 0.1155
vn -0.0265 -0.9996 -0.0043
vn 0.3104 -0.7874 0.5326
vn 0.0416 -0.9979 0.0501
vn 0.0367 -0.9992 -0.0187
vn 0.5552 -0.7622 0.3328
vn 0.1641 -0.3636 -0.9170
vn 0.6206 -0.6041 -0.5000
vn 0.1138 -0.6670 -0.7364
vn 0.1640 -0.3636 -0.9170
vn 0.6381 -0.3453 -0.6882
vn 0.6205 -0.6041 -0.5000
vn 0.1138 -0.6670 -0.7363
vn 0.8284 -0.3701 -0.4205
vn 0.8709 -0.4684 0.1485
vn 0.6206 -0.6041 -0.4999
vn 0.8518 -0.5019 0.1503
vn 0.8709 -0.4685 0.1484
vn 0.7361 -0.5031 0.4529
vn -0.2822 -0.5173 0.8079
vn 0.7188 0.0131 -0.6950
vn 0.8283 -0.3701 -0.4206
vn 0.9445 -0.2807 0.1708
vn 0.9706 -0.1713 0.1690
vn 0.6102 0.4667 0.6402
vn -0.0318 0.5967 0.8018
vn 0.8490 0.2386 0.4714
vn 0.8517 -0.5019 0.1503
vn 0.9449 -0.2808 0.1680
vn 0.8709 -0.4685 0.1485
vn 0.6524 -0.7491 0.1155
vn -0.0648 -0.9978 -0.0109
vn -0.0649 -0.9978 -0.0103
vn -0.0649 -0.9978 -0.0104
vn -0.1030 -0.9945 -0.0173
vn 0.0824 -0.6648 -0.7425
vn 0.0825 -0.6648 -0.7425
vn 0.1335 -0.3619 -0.9226
vn 0.1713 0.0462 -0.9841
vn 0.1336 0.0478 -0.9899
vn 0.1319 -0.3738 -0.9181
vn 0.1713 0.0464 -0.9841
vn -0.0521 -0.9967 -0.0624
vn -0.0501 -0.9971 -0.0564
vn -0.0501 -0.9972 -0.0564
vn 0.1699 -0.3722 -0.9125
vn 0.1698 -0.3722 -0.9125
vn 0.1713 0.0459 -0.9842
vn 0.1319 -0.3737 -0.9181
vn 0.1641 -0.3637 -0.9170
vn 0.1138 -0.6669 -0.7364
vn -0.0648 -0.9978 -0.0103
vn -0.0649 -0.9978 -0.0107
vn -0.0649 -0.9978 -0.0105
vn -0.9830 0.0246 -0.1822
vn -0.9820 -0.0970 -0.1623
vn -0.9800 0.0563 -0.1907
vn -0.9683 -0.2008 -0.1486
vn -0.6375 0.3376 -0.6926
vn -0.6576 -0.2302 -0.7173
vn -0.6375 0.3375 -0.6926
vn -0.9800 0.0562 -0.1907
vn -0.4105 -0.2823 -0.8670
vn -0.6576 -0.2302 -0.7174
vn -0.4105 -0.2823 -0.8671
vn -0.3811 0.3891 -0.8387
vn 0.1466 0.4446 -0.8837
vn 0.1005 -0.3638 -0.9260
vn 0.1465 0.4446 -0.8837
vn -0.4105 -0.2824 -0.8670
vn -0.3810 0.3892 -0.8387
vn 0.1005 -0.3638 -0.9261
vn 0.1797 0.4430 -0.8783
vn 0.1798 0.4430 -0.8783
vn 0.2121 0.4362 -0.8745
vn 0.1636 -0.3773 -0.9115
vn 0.2120 0.4362 -0.8745
vn 0.6782 0.3338 -0.6546
vn 0.6416 -0.3206 -0.6968
vn 0.6782 0.3338 -0.6547
vn 0.6416 -0.3207 -0.6968
vn 0.8624 0.2581 -0.4355
vn 0.8342 -0.2853 -0.4719
vn 0.6782 0.3339 -0.6547
vn 0.8342 -0.2853 -0.4720
vn 0.9807 -0.0546 0.1879
vn 0.9834 -0.0260 0.1794
vn 0.8342 -0.2854 -0.4719
vn 0.9640 0.2135 0.1584
vn 0.9834 -0.0260 0.1793
vn 0.9795 0.1041 0.1726
vn 0.8550 0.2471 0.4561
vn 0.9795 0.1042 0.1726
vn 0.8549 0.2471 0.4561
vn 0.7500 0.5356 0.3882
vn 0.6826 0.4069 0.6070
vn 0.4379 0.7151 0.5449
vn -0.0737 0.6961 0.7142
vn 0.0049 0.8030 0.5959
vn -0.0736 0.6961 0.7142
vn -0.6100 0.6118 0.5036
vn -0.8300 0.4333 0.3511
vn -0.6100 0.6118 0.5035
vn -0.0737 0.6960 0.7142
vn -0.9777 0.1619 0.1340
vn -0.9777 0.1620 0.1340
vn -0.9523 0.2733 0.1354
vn -0.9820 -0.0969 -0.1623
vn -0.9524 0.2733 0.1354
vn -0.9251 0.3553 -0.1342
vn -0.9783 0.0883 -0.1873
vn -0.6617 0.4784 -0.5773
vn -0.9783 0.0883 -0.1872
vn -0.3672 0.6184 -0.6948
vn 0.1332 0.6869 -0.7145
vn -0.3811 0.3892 -0.8387
vn 0.1670 0.6851 -0.7090
vn 0.2003 0.6826 -0.7028
vn 0.6491 0.5551 -0.5201
vn 0.2002 0.6826 -0.7028
vn 0.8660 0.3860 -0.3178
vn 0.9785 -0.0876 0.1866
vn 0.9795 0.1042 0.1727
vn 0.9253 -0.3516 0.1422
vn 0.8672 -0.1744 0.4664
vn 0.8672 -0.1744 0.4663
vn 0.7141 0.0170 0.6998
vn -0.0344 0.4797 0.8767
vn -0.7261 0.5499 0.4128
vn -0.0344 0.4797 0.8768
vn -0.8656 0.4714 0.1690
vn -0.9820 -0.0970 -0.1622
vn -0.9683 -0.2008 -0.1485
vn -0.9830 0.0247 -0.1822
vn -0.4459 -0.3026 -0.8424
vn 0.1004 -0.3638 -0.9261
vn 0.1004 -0.3638 -0.9260
vn 0.1699 -0.3723 -0.9124
vn 0.6686 -0.3398 -0.6614
vn 0.9870 -0.0265 0.1583
vn 0.9640 0.2136 0.1585
vn 0.9640 0.2136 0.1584
vn 0.7499 0.5356 0.3882
vn 0.8490 0.2387 0.4714
vn -0.6973 0.5614 0.4455
vn -0.6974 0.5615 0.4455
# 219 vertex normals

vt 0.3149 0.8623 0.0000
vt 0.4543 0.8648 0.0000
vt 0.3149 0.8627 0.0000
vt 0.4543 0.8652 0.0000
vt 0.3124 0.8626 0.0000
vt 0.3108 0.8624 0.0000
vt 0.3108 0.8621 0.0000
vt 0.3124 0.8623 0.0000
vt 0.3091 0.8615 0.0000
vt 0.3090 0.8619 0.0000
vt 0.4546 0.8652 0.0000
vt 0.4546 0.8659 0.0000
vt 0.4543 0.8659 0.0000
vt 0.3150 0.8635 0.0000
vt 0.4606 0.8815 0.0000
vt 0.4601 0.8722 0.0000
vt 0.4605 0.8722 0.0000
vt 0.4603 0.8817 0.0000
vt 0.3091 0.8629 0.0000
vt 0.3107 0.8633 0.0000
vt 0.3124 0.8635 0.0000
vt 0.4604 0.8718 0.0000
vt 0.4600 0.8719 0.0000
vt 0.4600 0.8712 0.0000
vt 0.4598 0.8719 0.0000
vt 0.4598 0.8712 0.0000
vt 0.4543 0.8662 0.0000
vt 0.3151 0.8638 0.0000
vt 0.4543 0.8540 0.0000
vt 0.4546 0.8648 0.0000
vt 0.4540 0.8540 0.0000
vt 0.4600 0.8819 0.0000
vt 0.4598 0.8722 0.0000
vt 0.3119 0.8651 0.0000
vt 0.3112 0.8661 0.0000
vt 0.3115 0.8649 0.0000
vt 0.3107 0.8661 0.0000
vt 0.3128 0.8642 0.0000
vt 0.3130 0.8645 0.0000
vt 0.4546 0.8662 0.0000
vt 0.3194 0.8526 0.0000
vt 0.3144 0.8525 0.0000
vt 0.3123 0.8520 0.0000
vt 0.3163 0.8526 0.0000
vt 0.3102 0.8698 0.0000
vt 0.3120 0.8701 0.0000
vt 0.3102 0.8701 0.0000
vt 0.3120 0.8697 0.0000
vt 0.3085 0.8700 0.0000
vt 0.3085 0.8697 0.0000
vt 0.4540 0.8835 0.0000
vt 0.4544 0.8726 0.0000
vt 0.4548 0.8725 0.0000
vt 0.4545 0.8835 0.0000
vt 0.4537 0.8835 0.0000
vt 0.4542 0.8726 0.0000
vt 0.4550 0.8725 0.0000
vt 0.4548 0.8834 0.0000
vt 0.3148 0.8687 0.0000
vt 0.4542 0.8715 0.0000
vt 0.3146 0.8690 0.0000
vt 0.4542 0.8713 0.0000
vt 0.3111 0.8674 0.0000
vt 0.3115 0.8672 0.0000
vt 0.3127 0.8679 0.0000
vt 0.3124 0.8682 0.0000
vt 0.4550 0.8722 0.0000
vt 0.4547 0.8716 0.0000
vt 0.4549 0.8715 0.0000
vt 0.4548 0.8722 0.0000
vt 0.4544 0.8715 0.0000
vt 0.4545 0.8713 0.0000
vt 0.4544 0.8722 0.0000
vt 0.4542 0.8722 0.0000
vt 0.3146 0.8698 0.0000
vt 0.3103 0.8689 0.0000
vt 0.3120 0.8689 0.0000
vt 0.3089 0.8688 0.0000
vt 0.3146 0.8701 0.0000
vt 0.3191 0.8799 0.0000
vt 0.3121 0.8804 0.0000
vt 0.3141 0.8799 0.0000
vt 0.3161 0.8798 0.0000
vt 0.4543 0.8687 0.0000
vt 0.3165 0.8662 0.0000
vt 0.4546 0.8687 0.0000
vt 0.4573 0.8713 0.0000
vt 0.4573 0.8720 0.0000
vt 0.4574 0.8723 0.0000
vt 0.4575 0.8826 0.0000
vt 0.3139 0.8662 0.0000
vt 0.3121 0.8662 0.0000
vt 0.4635 0.8433 0.0000
vt 0.3442 0.8339 0.0000
vt 0.4633 0.8324 0.0000
vt 0.3336 0.8434 0.0000
vt 0.4636 0.8324 0.0000
vt 0.4638 0.8433 0.0000
vt 0.4676 0.9076 0.0000
vt 0.4683 0.8938 0.0000
vt 0.4686 0.8936 0.0000
vt 0.4674 0.9074 0.0000
vt 0.4671 0.9072 0.0000
vt 0.4681 0.8939 0.0000
vt 0.4649 0.9063 0.0000
vt 0.4657 0.8943 0.0000
vt 0.4627 0.9054 0.0000
vt 0.4633 0.8947 0.0000
vt 0.4625 0.9053 0.0000
vt 0.4631 0.8947 0.0000
vt 0.4620 0.9053 0.0000
vt 0.4627 0.8946 0.0000
vt 0.4618 0.9053 0.0000
vt 0.4624 0.8946 0.0000
vt 0.3328 0.8897 0.0000
vt 0.3430 0.8996 0.0000
vt 0.3401 0.8998 0.0000
vt 0.3289 0.8899 0.0000
vt 0.3379 0.9000 0.0000
vt 0.3275 0.8903 0.0000
vt 0.3356 0.9006 0.0000
vt 0.3256 0.8913 0.0000
vt 0.3261 0.8428 0.0000
vt 0.3368 0.8337 0.0000
vt 0.3280 0.8434 0.0000
vt 0.3389 0.8341 0.0000
vt 0.3294 0.8435 0.0000
vt 0.3413 0.8340 0.0000
vt 0.3493 0.8241 0.0000
vt 0.4533 0.8213 0.0000
vt 0.4536 0.8213 0.0000
vt 0.4571 0.9198 0.0000
vt 0.4572 0.9202 0.0000
vt 0.4569 0.9195 0.0000
vt 0.4548 0.9180 0.0000
vt 0.4527 0.9164 0.0000
vt 0.4524 0.9162 0.0000
vt 0.4520 0.9161 0.0000
vt 0.4517 0.9161 0.0000
vt 0.3480 0.9096 0.0000
vt 0.3453 0.9093 0.0000
vt 0.3436 0.9092 0.0000
vt 0.3417 0.9093 0.0000
vt 0.3425 0.8229 0.0000
vt 0.3445 0.8236 0.0000
vt 0.3464 0.8239 0.0000
# 146 texture coords

o 对象004
g 对象004
usemtl Material_0
s off
f 1/1/1 2/2/2 3/3/3 
f 2/2/4 4/4/5 3/3/6 
f 5/5/7 6/6/8 7/7/9 
f 7/7/10 8/8/11 5/5/7 
f 9/9/12 7/7/9 6/6/13 
f 9/9/14 6/6/8 10/10/15 
f 11/11/16 12/12/17 4/4/5 
f 13/13/18 4/4/5 12/12/17 
f 3/3/19 13/13/20 14/14/21 
f 13/13/20 3/3/22 4/4/5 
f 15/15/23 16/16/24 17/17/25 
f 16/16/24 15/15/26 18/18/27 
f 19/19/28 6/6/13 20/20/29 
f 6/6/8 19/19/30 10/10/15 
f 6/6/13 5/5/7 20/20/29 
f 21/21/31 20/20/32 5/5/7 
f 11/22/16 22/23/33 12/24/17 
f 12/24/17 23/25/34 24/26/35 
f 23/25/34 12/24/17 22/23/36 
f 25/27/37 26/28/38 13/13/20 
f 14/14/21 13/13/20 26/28/38 
f 2/2/4 15/29/23 17/30/25 
f 15/29/26 2/2/2 27/31/39 
f 16/16/40 28/32/41 29/33/42 
f 28/32/41 16/16/24 18/18/27 
f 30/34/43 31/35/44 20/36/32 
f 31/35/44 19/37/30 20/36/29 
f 30/34/43 21/38/31 32/39/45 
f 21/38/31 30/34/43 20/36/29 
f 12/12/17 25/27/46 13/13/20 
f 25/27/46 12/12/17 24/40/35 
f 22/23/36 29/33/42 23/25/34 
f 29/33/42 22/23/47 16/16/24 
f 17/17/25 22/23/36 11/22/16 
f 22/23/48 17/17/25 16/16/24 
f 4/4/5 17/30/25 11/11/16 
f 17/30/25 4/4/49 2/2/2 
f 33/41/50 2/2/2 1/1/1 
f 2/2/2 33/41/50 27/31/51 
f 34/42/52 9/9/14 35/43/53 
f 9/9/14 34/42/52 7/7/10 
f 34/42/52 8/8/54 7/7/9 
f 8/8/11 34/42/52 36/44/55 
f 33/41/56 1/1/1 36/44/55 
f 8/8/54 36/44/55 1/1/1 
f 8/8/11 3/3/6 5/5/7 
f 3/3/19 8/8/54 1/1/1 
f 21/21/31 3/3/6 14/14/57 
f 3/3/3 21/21/31 5/5/7 
f 21/38/31 14/14/21 32/39/45 
f 32/39/45 14/14/21 26/28/38 
f 37/45/58 38/46/59 39/47/60 
f 38/46/59 37/45/58 40/48/61 
f 9/49/12 37/45/58 39/47/60 
f 37/45/58 9/49/14 10/50/15 
f 41/51/62 42/52/63 43/53/64 
f 41/51/62 43/53/64 44/54/65 
f 45/55/66 46/56/67 42/52/63 
f 45/55/66 42/52/68 41/51/62 
f 44/54/65 43/53/64 47/57/69 
f 47/57/69 48/58/70 44/54/71 
f 49/59/72 50/60/73 51/61/74 
f 50/60/73 49/59/72 52/62/75 
f 53/63/76 19/37/28 31/35/44 
f 53/63/76 31/35/44 54/64/77 
f 54/64/77 55/65/78 56/66/79 
f 56/66/79 53/63/76 54/64/77 
f 57/67/80 58/68/81 59/69/82 
f 58/68/81 57/67/83 60/70/84 
f 52/62/75 58/71/81 50/60/73 
f 58/71/85 52/62/75 59/72/86 
f 58/68/81 60/70/84 61/73/87 
f 58/71/85 62/74/88 50/60/73 
f 62/74/88 58/71/89 61/73/87 
f 51/61/74 62/74/88 63/75/90 
f 62/74/91 51/61/74 50/60/73 
f 40/48/61 53/76/76 56/77/79 
f 53/76/76 40/48/92 37/45/58 
f 19/78/30 53/76/76 10/50/15 
f 37/45/58 10/50/93 53/76/76 
f 60/70/84 57/67/83 43/53/64 
f 57/67/83 47/57/69 43/53/94 
f 42/52/63 61/73/87 60/70/84 
f 42/52/63 60/70/84 43/53/94 
f 46/56/67 62/74/91 61/73/95 
f 46/56/67 61/73/87 42/52/63 
f 64/79/96 46/56/67 65/80/97 
f 65/80/97 46/56/67 45/55/66 
f 35/81/53 39/47/60 66/82/98 
f 39/47/60 35/81/99 9/49/14 
f 66/82/98 38/46/59 67/83/100 
f 38/46/59 66/82/98 39/47/60 
f 63/75/101 46/56/67 64/79/102 
f 46/56/67 63/75/90 62/74/103 
f 67/83/100 64/79/96 65/80/97 
f 64/79/96 67/83/100 38/46/59 
f 38/46/59 63/75/90 64/79/96 
f 63/75/101 38/46/59 40/48/61 
f 56/77/79 63/75/90 40/48/92 
f 63/75/90 56/77/79 51/61/74 
f 55/65/78 49/59/72 51/61/104 
f 51/61/74 56/66/79 55/65/78 
f 68/84/105 69/85/106 25/27/46 
f 26/28/38 25/27/46 69/85/107 
f 68/84/105 25/27/108 24/40/35 
f 68/84/105 24/40/35 70/86/109 
f 70/87/110 23/25/34 71/88/111 
f 23/25/34 70/87/110 24/26/35 
f 23/25/34 72/89/112 71/88/111 
f 72/89/112 23/25/34 29/33/113 
f 29/33/42 73/90/114 72/89/115 
f 73/90/114 29/33/42 28/32/41 
f 32/39/45 74/91/116 75/92/117 
f 32/39/45 75/92/118 30/34/43 
f 26/28/38 69/85/107 74/91/116 
f 26/28/38 74/91/116 32/39/45 
f 31/35/44 75/92/118 54/64/77 
f 75/92/117 31/35/44 30/34/43 
f 72/89/112 48/58/119 47/57/69 
f 48/58/120 72/89/121 73/90/122 
f 71/88/111 47/57/69 57/67/123 
f 47/57/69 71/88/111 72/89/112 
f 59/69/86 71/88/111 57/67/80 
f 71/88/111 59/69/124 70/87/110 
f 70/86/109 52/62/75 68/84/105 
f 52/62/75 70/86/109 59/72/82 
f 52/62/75 49/59/72 69/85/125 
f 69/85/106 68/84/126 52/62/75 
f 69/85/127 49/59/72 74/91/116 
f 74/91/116 49/59/72 55/65/78 
f 74/91/116 55/65/78 75/92/117 
f 75/92/117 55/65/78 54/64/77 
f 76/93/128 77/94/129 78/95/130 
f 77/94/129 76/93/128 79/96/131 
f 76/93/128 80/97/132 81/98/133 
f 80/97/134 76/93/128 78/95/135 
f 80/99/134 82/100/136 81/101/137 
f 82/100/138 80/99/134 83/102/139 
f 82/100/136 84/103/140 85/104/141 
f 84/103/142 82/100/143 83/102/144 
f 85/104/145 86/105/146 87/106/114 
f 86/105/147 85/104/145 84/103/140 
f 87/106/114 88/107/148 89/108/149 
f 88/107/150 87/106/114 86/105/146 
f 89/108/149 90/109/151 91/110/152 
f 90/109/153 89/108/149 88/107/150 
f 91/110/154 92/111/155 93/112/156 
f 92/111/155 91/110/152 90/109/157 
f 93/112/158 94/113/159 95/114/160 
f 94/113/159 93/112/161 92/111/155 
f 96/115/162 95/114/163 97/116/164 
f 97/116/164 95/114/163 94/113/159 
f 98/117/165 96/115/162 97/116/166 
f 96/115/162 98/117/167 99/118/168 
f 100/119/169 99/118/168 98/117/165 
f 99/118/168 100/119/169 101/120/170 
f 101/120/170 102/121/171 103/122/172 
f 102/121/171 101/120/170 100/119/169 
f 103/123/172 102/124/173 104/125/174 
f 105/126/175 104/125/176 102/124/177 
f 105/126/175 106/127/178 104/125/174 
f 106/127/179 105/126/175 107/128/180 
f 77/94/181 79/96/131 107/128/180 
f 106/127/179 107/128/182 79/96/131 
f 108/129/183 109/130/184 77/94/129 
f 77/94/129 109/130/184 78/95/130 
f 78/95/135 110/131/185 80/97/134 
f 110/131/185 78/95/135 109/130/186 
f 80/99/134 111/132/187 83/102/139 
f 111/132/187 80/99/134 110/133/185 
f 83/102/144 112/134/188 84/103/140 
f 112/134/188 83/102/189 111/132/187 
f 84/103/140 113/135/190 86/105/146 
f 113/135/190 84/103/142 112/134/188 
f 86/105/146 114/136/191 88/107/150 
f 114/136/191 86/105/147 113/135/190 
f 115/137/192 90/109/157 114/136/193 
f 114/136/191 90/109/157 88/107/148 
f 90/109/157 115/137/192 92/111/155 
f 116/138/194 92/111/155 115/137/192 
f 92/111/155 116/138/194 94/113/159 
f 117/139/195 94/113/159 116/138/194 
f 97/116/196 117/139/195 118/140/197 
f 117/139/195 97/116/164 94/113/159 
f 119/141/198 97/116/164 118/140/197 
f 97/116/164 119/141/199 98/117/165 
f 120/142/200 98/117/167 119/141/198 
f 98/117/165 120/142/200 100/119/169 
f 121/143/201 100/119/169 120/142/200 
f 100/119/169 121/143/201 102/121/171 
f 121/144/201 105/126/175 102/124/171 
f 122/145/202 105/126/175 121/144/203 
f 122/145/202 107/128/180 105/126/175 
f 107/128/182 122/145/202 123/146/204 
f 123/146/204 77/94/205 107/128/180 
f 77/94/181 123/146/204 108/129/183 
f 27/31/51 79/96/206 76/93/128 
f 79/96/131 27/31/39 33/41/50 
f 27/31/39 76/93/207 15/29/23 
f 81/98/137 15/29/26 76/93/128 
f 15/15/26 81/101/133 18/18/208 
f 18/18/27 81/101/133 82/100/143 
f 18/18/27 82/100/136 28/32/41 
f 28/32/41 82/100/136 85/104/209 
f 28/32/41 85/104/210 73/90/122 
f 85/104/210 87/106/114 73/90/114 
f 73/90/114 87/106/114 48/58/70 
f 87/106/122 89/108/149 48/58/211 
f 89/108/149 44/54/65 48/58/120 
f 44/54/65 89/108/149 91/110/152 
f 93/112/161 44/54/212 91/110/154 
f 44/54/65 93/112/156 41/51/62 
f 95/114/160 41/51/62 93/112/158 
f 41/51/62 95/114/163 45/55/213 
f 65/80/97 45/55/213 96/115/214 
f 95/114/163 96/115/162 45/55/66 
f 99/118/168 65/80/97 96/115/215 
f 65/80/97 99/118/216 67/83/100 
f 101/120/170 67/83/100 99/118/168 
f 67/83/217 101/120/170 66/82/98 
f 66/82/98 103/122/172 35/81/53 
f 103/122/172 66/82/98 101/120/170 
f 35/43/53 103/123/172 34/42/218 
f 104/125/176 34/42/219 103/123/172 
f 104/125/174 36/44/55 34/42/52 
f 36/44/55 104/125/174 106/127/179 
f 79/96/131 33/41/50 106/127/179 
f 36/44/55 106/127/178 33/41/56 
# 0 polygons - 228 triangles

